<svg xmlns="http://www.w3.org/2000/svg" width="1906" height="367" viewBox="0 0 1906 367.00001"><g transform="translate(0 -685.362)" stroke="#fff"><circle cx="953.027" cy="858.691" r="170.029" fill="none" stroke-width="2" stroke-linecap="round"/><circle cx="731.958" cy="809.257" r="11.843" fill="none" stroke-width="2" stroke-linecap="round"/><circle cx="457.113" cy="715.475" r="11.843" fill="none" stroke-width="2" stroke-linecap="round"/><circle cx="247.291" cy="710.49" r="6.897" fill="none" stroke-width="2" stroke-linecap="round"/><circle cx="655.172" cy="972.559" r="11.843" fill="none" stroke-width="2" stroke-linecap="round"/><circle cx="496.522" cy="971.633" r="11.843" fill="none" stroke-width="2" stroke-linecap="round"/><circle cx="466.995" cy="890.815" r="6.897" fill="none" stroke-width="2" stroke-linecap="round"/><circle cx="378.325" cy="927.239" r="6.897" fill="none" stroke-width="2" stroke-linecap="round"/><circle cx="255.172" cy="903.594" r="6.897" fill="none" stroke-width="2" stroke-linecap="round"/><circle cx="164.532" cy="981.456" r="6.897" fill="none" stroke-width="2" stroke-linecap="round"/><path d="M782.266 858.273l-41.872-41.871M722.138 803.101H671.92M827.616 974.53l-160.62-2M642.365 971.574h-134.02" fill="none" stroke-width="2"/><path d="M484.73 970.589L170.442 982.41M648.276 963.692l-175.37-70.936M461.084 891.771l-77.833 32.512" fill="none"/><path d="M281.773 877.978l-22.66 18.72" fill="#fff" fill-rule="evenodd" stroke-width="2"/><path d="M247.29 905.564l-115.763-2.217M483.773 809.012h-45.35" fill="none" stroke-width="2"/><path d="M511.7 746.081l-45.008-25.478M446.305 710.46H254.187" fill="none"/><circle cx="655.172" cy="972.559" r="5.172" fill="#fff" fill-opacity=".727" stroke-width="2" stroke-linecap="round"/><circle cx="457.113" cy="715.475" r="5.172" fill="#fff" fill-opacity=".727" stroke-width="2" stroke-linecap="round"/><circle cx="-1172.774" cy="810.474" r="11.843" transform="scale(-1 1)" fill="none" stroke-width="2" stroke-linecap="round"/><circle cx="-1447.619" cy="716.692" r="11.843" transform="scale(-1 1)" fill="none" stroke-width="2" stroke-linecap="round"/><circle cx="-1657.441" cy="711.707" r="6.897" transform="scale(-1 1)" fill="none" stroke-width="2" stroke-linecap="round"/><circle cx="-1249.559" cy="973.776" r="11.843" transform="scale(-1 1)" fill="none" stroke-width="2" stroke-linecap="round"/><circle cx="-1432.21" cy="944.85" r="11.843" transform="scale(-1 1)" fill="none" stroke-width="2" stroke-linecap="round"/><circle cx="-1437.737" cy="-1040.918" r="6.897" transform="scale(-1)" fill="none" stroke-width="2" stroke-linecap="round"/><circle cx="-1526.407" cy="-1016.494" r="6.897" transform="scale(-1)" fill="none" stroke-width="2" stroke-linecap="round"/><circle cx="-1649.559" cy="904.81" r="6.897" transform="scale(-1 1)" fill="none" stroke-width="2" stroke-linecap="round"/><circle cx="-1740.2" cy="982.673" r="6.897" transform="scale(-1 1)" fill="none" stroke-width="2" stroke-linecap="round"/><path d="M1122.466 859.49l41.872-41.872M1182.594 804.318h52.217M1077.116 975.746l160.62-2M1262.367 972.79l158.02-26" fill="none" stroke-width="2"/><path d="M1444.003 945.806l290.286 37.822M1256.456 980.041l175.37 60.936M1441.648 1041.962l77.833-22.512" fill="none"/><path d="M1622.959 881.195l22.66 16.719" fill="#fff" fill-rule="evenodd" stroke-width="2"/><path d="M1657.441 904.78l109.764-.216M1422.436 810.23h42.887" fill="none" stroke-width="2"/><path d="M1394.757 746.313l43.283-24.493M1458.427 711.677h192.118" fill="none"/><circle cx="-1249.559" cy="973.776" r="5.172" transform="scale(-1 1)" fill="#fff" fill-opacity=".727" stroke-width="2" stroke-linecap="round"/><circle cx="-1447.619" cy="716.692" r="5.172" transform="scale(-1 1)" fill="#fff" fill-opacity=".727" stroke-width="2" stroke-linecap="round"/></g></svg>