<svg xmlns="http://www.w3.org/2000/svg" xmlns:xlink="http://www.w3.org/1999/xlink" width="300" height="300" viewBox="0 0 300.00002 300"><g transform="translate(-123.305 -29.237)"><circle r="146.01" cy="-319.996" transform="rotate(135)" cx="-66.516" stroke="#fff" stroke-width="1.311" fill="none"/><path id="a" d="M288.028 37.88l-7.362 12.75-7.36 12.75-7.362-12.75-7.361-12.75h14.722z" fill="#fff" fill-opacity=".447" stroke="#fff" stroke-width="1.3"/><use xlink:href="#a" transform="rotate(36 273.313 179.231)" width="100%" height="100%"/><use xlink:href="#a" transform="rotate(72 273.313 179.231)" width="100%" height="100%"/><use xlink:href="#a" transform="rotate(108 273.313 179.231)" width="100%" height="100%"/><use xlink:href="#a" transform="rotate(144 273.313 179.231)" width="100%" height="100%"/><use xlink:href="#a" transform="rotate(180 273.313 179.231)" width="100%" height="100%"/><use xlink:href="#a" transform="rotate(-144 273.313 179.231)" width="100%" height="100%"/><use xlink:href="#a" transform="rotate(-108 273.313 179.231)" width="100%" height="100%"/><use xlink:href="#a" transform="rotate(-72 273.313 179.231)" width="100%" height="100%"/><use xlink:href="#a" transform="rotate(-36 273.313 179.231)" width="100%" height="100%"/><circle cx="273.305" cy="179.237" r="90.51" fill="#fff" fill-opacity=".573" stroke="#fff" stroke-width="1.3"/><circle cx="273.305" cy="179.237" r="107.568" fill="none" stroke="#fff" stroke-width="3"/></g></svg>