<svg xmlns="http://www.w3.org/2000/svg" xmlns:xlink="http://www.w3.org/1999/xlink" viewBox="0 0 300.00002 300" height="300" width="300"><g transform="matrix(2.39593 0 0 2.39593 -13.104 -2569.298)"><circle cx="753.853" transform="rotate(135)" cy="-850.678" r="58.655" stroke="#fff" stroke-width=".569" stroke-opacity=".656" fill="none"/><circle cx="753.853" transform="rotate(135)" cy="-850.678" r="56.045" stroke="#fff" stroke-width="1.332" fill="none"/><circle cx="753.853" transform="rotate(135)" cy="-850.678" r="60.456" stroke="#fff" stroke-width=".543" fill="none"/><g fill="#fff" fill-opacity=".53" color="#000" white-space="normal"><path d="M64.997 1097.208c-7.301.668-14.44 3.443-20.393 8.334l.542 4.507 8.999 8.999c3.846-3.559 8.637-5.432 13.48-5.628v-12.69l-2.628-3.522zM72.089 1097.217l-2.767 3.523v12.68c4.843.196 9.632 2.074 13.476 5.635l9.009-9.01.641-4.403c-5.935-4.918-13.062-7.728-20.36-8.425zM39.529 1110.602c-4.916 5.935-7.725 13.062-8.421 20.358l3.526 2.769h1.015c.089-3.433.71-6.855 1.875-10.137l.213-.6 11.016 3.91a21.248 21.248 0 0 1 4.192-6.653l-9.005-9.005-4.41-.642zm-.992 14.024a31.545 31.545 0 0 0-1.595 9.102h3.404c.093-2.15.574-4.353 1.443-6.97l6.292 2.142c.076-.268.155-.535.241-.8l-9.785-3.474zM97.499 1110.713l-4.5.54-9.002 9.003a21.232 21.232 0 0 1 4.103 6.444l10.38-3.807.597-.22.219.598a32.82 32.82 0 0 1 1.988 10.462h1.035l3.517-2.624c-.667-7.302-3.445-14.443-8.337-20.396zm.795 13.603l-9.755 3.577c.103.305.196.613.284.92l6.223-2.116c.908 2.64 1.415 4.86 1.528 7.036h3.417a31.531 31.531 0 0 0-1.697-9.416z" style="text-indent:0;text-decoration-line:none;text-decoration-style:solid;text-decoration-color:#000;text-transform:none;block-progression:tb;isolation:auto;mix-blend-mode:normal"/></g><path d="M30.971 1133.005l-5.007 1.65 5.003 1.378 1.979-1.476z" style="text-indent:0;text-decoration-line:none;text-decoration-style:solid;text-decoration-color:#000;text-transform:none;block-progression:tb;isolation:auto;mix-blend-mode:normal" id="a" color="#000" white-space="normal" fill="#fff"/><g fill="#fff" fill-opacity=".53" color="#000" white-space="normal"><path d="M34.623 1135.423l-3.526 2.63c.669 7.302 3.454 14.439 8.347 20.39l4.498-.54 9-9a21.258 21.258 0 0 1-4.111-6.45l-10.375 3.805-.598.22-.219-.598a32.819 32.819 0 0 1-1.988-10.457h-1.028zm2.32 0c.086 3.184.648 6.359 1.698 9.412l9.75-3.575a21.198 21.198 0 0 1-.285-.923l-6.222 2.116c-.907-2.638-1.415-4.856-1.528-7.03h-3.413zM96.583 1135.431c-.094 2.15-.574 4.351-1.443 6.966l-6.292-2.142c-.075.267-.154.532-.24.796l9.787 3.475a31.547 31.547 0 0 0 1.597-9.094h-3.41zm4.701 0c-.09 3.43-.71 6.85-1.875 10.13l-.213.6-11.018-3.912a21.222 21.222 0 0 1-4.19 6.655l9.013 9.012 4.397.64c4.918-5.937 7.726-13.067 8.421-20.366l-3.512-2.759h-1.023zM54.144 1150.102l-9.009 9.009-.64 4.404c5.937 4.916 13.066 7.722 20.365 8.416l2.76-3.515v-12.685c-4.843-.196-9.631-2.07-13.476-5.629zM82.79 1150.102c-3.844 3.558-8.633 5.432-13.474 5.629v12.695l2.624 3.518c7.303-.669 14.443-3.448 20.396-8.341l-.54-4.495-9.006-9.006z" style="text-indent:0;text-decoration-line:none;text-decoration-style:solid;text-decoration-color:#000;text-transform:none;block-progression:tb;isolation:auto;mix-blend-mode:normal"/></g><g fill="#fff" color="#000" white-space="normal"><path d="M43.058 1106.887c-.394.362-.784.732-1.165 1.113-.354.354-.695.715-1.032 1.079l2.504.364-.307-2.556zM93.97 1106.976l-.363 2.498 2.55-.307a37.658 37.658 0 0 0-1.114-1.165c-.352-.352-.71-.691-1.073-1.026zM43.336 1159.684l-2.551.306c.36.392.728.78 1.107 1.159.355.354.716.697 1.08 1.034l.364-2.5zM93.576 1159.713l.305 2.544c.392-.36.779-.728 1.158-1.107.353-.352.693-.712 1.028-1.075l-2.491-.362z" style="text-indent:0;text-decoration-line:none;text-decoration-style:solid;text-decoration-color:#000;text-transform:none;block-progression:tb;isolation:auto;mix-blend-mode:normal"/></g><g fill="#fff" color="#000" white-space="normal"><path style="text-indent:0;text-decoration-line:none;text-decoration-style:solid;text-decoration-color:#000;text-transform:none;block-progression:tb;isolation:auto;mix-blend-mode:normal" d="M38.34 1124.073l-.193.543a29.774 29.774 0 0 0 .105 20.207l.138.378h.505l.096-.035 20.65-7.573-.197-.541a7.182 7.182 0 0 1-.026-4.883l.193-.543-21.27-7.553zm3.424 2.68l16.421 5.59a8.296 8.296 0 0 0 .023 4.547l-16.348 5.56c-2.04-5.93-2.073-9.742-.094-15.697zM98.593 1145.072l.193-.543a29.774 29.774 0 0 0-.104-20.207l-.138-.378h-.506l-.096.035-20.65 7.573.198.541c.578 1.578.588 3.3.025 4.883l-.193.543 21.27 7.553zm-3.424-2.68l-16.42-5.59a8.296 8.296 0 0 0-.024-4.547l16.35-5.561c2.04 5.932 2.073 9.744.094 15.697z"/></g><text x="59.697" y="1138.865" font-size="32.36" style="line-height:125%" font-family="sans-serif" letter-spacing="0" word-spacing="0"><tspan style="-inkscape-font-specification:'Abyssinica SIL'" x="59.697" y="1138.865" font-weight="400" font-family="Abyssinica SIL" fill="#fff">g</tspan></text><text x="-506.595" y="1056.057" font-size="16.965" transform="rotate(-29.497)" style="line-height:125%" font-family="sans-serif" letter-spacing="0" word-spacing="0" fill="#d40000"><tspan x="-506.595" y="1056.057">2</tspan></text><use xlink:href="#a" width="100%" height="100%"/><use xlink:href="#a" transform="rotate(90 68.465 1134.574)" width="100%" height="100%"/><use xlink:href="#a" transform="rotate(180 68.466 1134.574)" width="100%" height="100%"/><use xlink:href="#a" transform="rotate(-90 68.465 1134.574)" width="100%" height="100%"/><circle cx="758.895" transform="scale(-1.00586 -.9941) rotate(-45)" cy="-855.156" r="43.572" stroke="#fff" stroke-width=".391" fill="none"/><circle id="b" cx="68.466" cy="1075.981" r="1.848" stroke="#fff" stroke-width=".569" stroke-linecap="round"/><use xlink:href="#b" transform="rotate(18 68.465 1134.575)" width="100%" height="100%"/><use xlink:href="#b" transform="rotate(36 68.465 1134.574)" width="100%" height="100%"/><use xlink:href="#b" transform="rotate(54 68.465 1134.575)" width="100%" height="100%"/><use xlink:href="#b" transform="rotate(72 68.465 1134.575)" width="100%" height="100%"/><use xlink:href="#b" transform="rotate(90 68.465 1134.574)" width="100%" height="100%"/><use xlink:href="#b" transform="rotate(108 68.465 1134.575)" width="100%" height="100%"/><use xlink:href="#b" transform="rotate(126 68.465 1134.575)" width="100%" height="100%"/><use xlink:href="#b" transform="rotate(144 68.465 1134.575)" width="100%" height="100%"/><use xlink:href="#b" transform="rotate(162 68.465 1134.575)" width="100%" height="100%"/><use xlink:href="#b" transform="rotate(180 68.465 1134.574)" width="100%" height="100%"/><use xlink:href="#b" transform="rotate(-162 68.465 1134.575)" width="100%" height="100%"/><use xlink:href="#b" transform="rotate(-144 68.465 1134.575)" width="100%" height="100%"/><use xlink:href="#b" transform="rotate(-126 68.465 1134.575)" width="100%" height="100%"/><use xlink:href="#b" transform="rotate(-108 68.465 1134.574)" width="100%" height="100%"/><use xlink:href="#b" transform="rotate(-90 68.465 1134.574)" width="100%" height="100%"/><use xlink:href="#b" transform="rotate(-72 68.465 1134.575)" width="100%" height="100%"/><use xlink:href="#b" transform="rotate(-54 68.465 1134.575)" width="100%" height="100%"/><use xlink:href="#b" transform="rotate(-36 68.465 1134.575)" width="100%" height="100%"/><use xlink:href="#b" transform="rotate(-18 68.465 1134.575)" width="100%" height="100%"/><path id="c" d="M38.649 1172.33l-2.138 2.325m-7.39-12.25l-2.433 2.034m-6.49-28.883l-2.843.06a50.889 50.889 0 0 0 9.512 28.665l-1.429 1.188a109.92 109.92 0 0 0 9.94 10.404l1.227-1.33a50.91 50.91 0 0 0 31.155 11.15l.04-2.844a48.097 48.097 0 0 1-29.273-10.39l.957-1.036a103.649 103.649 0 0 1-9.386-9.83l-1.048.873a48.089 48.089 0 0 1-8.852-26.91z" fill="none" fill-rule="evenodd" stroke="#fff" stroke-width=".853"/><use xlink:href="#c" width="100%" height="100%"/><use xlink:href="#c" transform="rotate(90 68.464 1134.579)" width="100%" height="100%"/><use xlink:href="#c" transform="rotate(180 68.464 1134.579)" width="100%" height="100%"/><use xlink:href="#c" transform="rotate(-90 68.464 1134.579)" width="100%" height="100%"/></g></svg>