<svg xmlns="http://www.w3.org/2000/svg" xmlns:xlink="http://www.w3.org/1999/xlink" viewBox="0 0 300.00002 300" height="300" width="300"><g transform="matrix(2.3303 0 0 2.3303 -20.55 -2523.225)"><path d="M92.29 1094.51l-1.001 2.809c-1.111-.371-3.164-1.072-4.319-1.38l-.771 2.877a50.768 50.768 0 0 1 12.324 5.102l1.485-2.573c-1.011-.585-3.218-1.641-4.27-2.176l1.257-2.708a56.867 56.867 0 0 0-4.705-1.951zm-38.02.122a56.915 56.915 0 0 0-4.707 1.947l1.278 2.695c-1.048.523-2.996 1.479-4.03 2.077l1.49 2.58a50.763 50.763 0 0 1 12.321-5.107l-.768-2.869c-1.13.301-3.437 1.114-4.558 1.48l-1.027-2.803zm19.873 3.168a49.327 49.327 0 0 0-35.6 14.443 49.327 49.327 0 0 0 0 69.759 49.327 49.327 0 0 0 69.76 0 49.327 49.327 0 0 0 0-69.76 49.327 49.327 0 0 0-34.16-14.442zm45.051 22.707l-2.58 1.49a50.764 50.764 0 0 1 5.107 12.322l2.869-.768c-.301-1.13-1.114-3.437-1.48-4.558l2.803-1.027a56.89 56.89 0 0 0-1.947-4.707l-2.694 1.279c-.523-1.048-1.48-2.996-2.078-4.03zm-91.545.03c-.586 1.01-1.643 3.218-2.177 4.269l-2.708-1.257a56.885 56.885 0 0 0-1.95 4.705l2.808 1.002c-.372 1.11-1.072 3.164-1.381 4.319l2.878.77a50.767 50.767 0 0 1 5.102-12.323l-2.572-1.486zm94.08 39.358a50.764 50.764 0 0 1-5.101 12.324l2.571 1.486c.586-1.011 1.643-3.219 2.177-4.27l2.708 1.256a56.873 56.873 0 0 0 1.951-4.704l-2.808-1.002c.37-1.111 1.071-3.164 1.38-4.319l-2.878-.77zm-96.601.027l-2.87.77c.301 1.128 1.114 3.436 1.48 4.557l-2.803 1.026a56.888 56.888 0 0 0 1.947 4.707l2.695-1.277c.523 1.047 1.48 2.994 2.077 4.029l2.58-1.49a50.771 50.771 0 0 1-5.106-12.322zm73.42 30.389a50.763 50.763 0 0 1-12.322 5.107l.769 2.869c1.128-.301 3.436-1.114 4.558-1.48l1.026 2.803a56.88 56.88 0 0 0 4.707-1.947l-1.278-2.695c1.047-.523 2.995-1.48 4.03-2.077l-1.49-2.58zm-50.223.013l-1.485 2.572c1.011.586 3.218 1.643 4.27 2.177l-1.257 2.708a56.903 56.903 0 0 0 4.705 1.951l1.002-2.809c1.11.371 3.164 1.072 4.318 1.38l.771-2.877a50.772 50.772 0 0 1-12.324-5.102z" stroke="#fff" stroke-width="1.173" stroke-opacity=".568" fill="none"/><circle cx="759.22" transform="rotate(135)" cy="-863.056" r="58.086" stroke="#fff" stroke-width="1.381" fill="none"/><circle cx="759.22" transform="rotate(135)" cy="-863.056" r="62.657" stroke="#fff" stroke-width=".563" fill="none"/><circle cx="758.775" transform="rotate(135)" cy="-863.056" r="60.561" stroke="#fff" stroke-width=".544" stroke-dasharray="4.34862903,2.17431451" stroke-opacity=".596" fill="none"/><g fill="#fff" fill-opacity=".53" color="#000" white-space="normal"><path d="M69.828 1108.396c-7.567.691-14.967 3.567-21.136 8.636l.562 4.672 9.326 9.326c3.986-3.688 8.952-5.63 13.971-5.833v-13.151l-2.723-3.65zM77.178 1108.404l-2.868 3.652v13.14c5.02.205 9.983 2.15 13.967 5.842l9.336-9.338.665-4.563c-6.151-5.098-13.537-8.01-21.1-8.732zM43.432 1122.277c-5.095 6.151-8.006 13.537-8.727 21.1l3.654 2.869h1.052a34.018 34.018 0 0 1 1.943-10.506l.22-.622 11.418 4.053a22.021 22.021 0 0 1 4.344-6.896l-9.332-9.333-4.572-.664zm-1.028 14.535a32.693 32.693 0 0 0-1.653 9.433h3.528c.097-2.229.595-4.512 1.496-7.224l6.52 2.22c.08-.277.161-.554.25-.829l-10.14-3.6zM103.513 1122.392l-4.664.56-9.33 9.33a22.005 22.005 0 0 1 4.253 6.679l10.756-3.945.62-.228.227.62a34.015 34.015 0 0 1 2.06 10.842h1.073l3.645-2.72c-.691-7.567-3.57-14.968-8.64-21.138zm.824 14.099l-10.11 3.707c.106.316.203.634.294.954l6.45-2.194c.94 2.736 1.466 5.037 1.583 7.292h3.541a32.679 32.679 0 0 0-1.758-9.76z" style="text-indent:0;text-decoration-line:none;text-decoration-style:solid;text-decoration-color:#000;text-transform:none;block-progression:tb;isolation:auto;mix-blend-mode:normal"/></g><g fill="#fff" fill-opacity=".53" color="#000" white-space="normal"><path d="M38.348 1148.002l-3.655 2.725c.694 7.568 3.58 14.965 8.651 21.133l4.662-.561 9.328-9.327a22.032 22.032 0 0 1-4.261-6.684l-10.753 3.943-.62.228-.226-.62a34.014 34.014 0 0 1-2.06-10.838h-1.066zm2.405 0c.088 3.3.67 6.59 1.759 9.754l10.105-3.705a21.97 21.97 0 0 1-.295-.957l-6.449 2.194c-.94-2.734-1.467-5.033-1.584-7.287h-3.536zM102.563 1148.01c-.097 2.228-.595 4.51-1.495 7.22l-6.521-2.22c-.078.276-.16.551-.25.825l10.145 3.601a32.696 32.696 0 0 0 1.654-9.425h-3.533zm4.873 0a34.021 34.021 0 0 1-1.943 10.499l-.221.621-11.42-4.054a21.995 21.995 0 0 1-4.342 6.898l9.34 9.34 4.558.663c5.098-6.154 8.008-13.542 8.728-21.108l-3.64-2.859h-1.061zM58.58 1163.215l-9.338 9.337-.663 4.564c6.153 5.096 13.542 8.004 21.107 8.723l2.86-3.643v-13.148c-5.019-.202-9.982-2.144-13.966-5.833zM88.268 1163.215c-3.984 3.687-8.947 5.63-13.964 5.834v13.157l2.72 3.646c7.568-.693 14.968-3.573 21.138-8.645l-.56-4.659-9.334-9.333z" style="text-indent:0;text-decoration-line:none;text-decoration-style:solid;text-decoration-color:#000;text-transform:none;block-progression:tb;isolation:auto;mix-blend-mode:normal"/></g><g fill="#fff" color="#000" white-space="normal"><path style="text-indent:0;text-decoration-line:none;text-decoration-style:solid;text-decoration-color:#000;text-transform:none;block-progression:tb;isolation:auto;mix-blend-mode:normal" d="M47.09 1118.427c-.409.375-.812.758-1.208 1.154-.366.366-.72.74-1.069 1.117l2.595.378-.318-2.65zM99.855 1118.519l-.376 2.589 2.642-.318a39.028 39.028 0 0 0-1.154-1.208 39.025 39.025 0 0 0-1.112-1.063zM47.378 1173.145l-2.644.318c.373.406.754.808 1.148 1.201.367.367.741.722 1.12 1.072l.376-2.59zM99.447 1173.176l.316 2.637c.406-.373.807-.755 1.2-1.148.366-.365.718-.738 1.065-1.114l-2.581-.375z"/></g><g fill="#fff" color="#000" white-space="normal"><path style="text-indent:0;text-decoration-line:none;text-decoration-style:solid;text-decoration-color:#000;text-transform:none;block-progression:tb;isolation:auto;mix-blend-mode:normal" d="M42.2 1136.238l-.2.564a30.858 30.858 0 0 0 .109 20.942l.143.392h.524l.1-.037 21.401-7.849-.205-.56a7.443 7.443 0 0 1-.026-5.06l.2-.564-22.045-7.828zm3.55 2.779l17.018 5.792a8.598 8.598 0 0 0 .024 4.713l-16.944 5.763c-2.114-6.146-2.148-10.097-.098-16.27zM104.647 1158.002l.2-.563a30.858 30.858 0 0 0-.108-20.942l-.144-.393h-.523l-.1.037-21.402 7.849.205.56c.6 1.635.61 3.42.027 5.061l-.2.563 22.044 7.828zm-3.549-2.778l-17.019-5.793a8.598 8.598 0 0 0-.024-4.713l16.945-5.763c2.115 6.148 2.149 10.099.098 16.269z"/></g><text x="67.388" y="1157.03" font-size="33.538" style="line-height:125%" font-family="sans-serif" letter-spacing="0" word-spacing="0"><tspan style="-inkscape-font-specification:'Abyssinica SIL'" x="67.388" y="1157.03" font-weight="400" font-family="Abyssinica SIL" fill="#fff">t</tspan></text><text x="-508.734" y="1070.688" font-size="17.583" transform="rotate(-29.497)" style="line-height:125%" font-family="sans-serif" letter-spacing="0" word-spacing="0" fill="#d40000"><tspan x="-508.734" y="1070.688">2</tspan></text><g color="#000" white-space="normal" fill="#fff"><path d="M34.51 1145.457c-.023.554-.038 1.11-.038 1.67 0 .518.014 1.033.035 1.546l2.102-1.568-2.099-1.648zM71.887 1108.211l1.564 2.097 1.643-2.093a39.029 39.029 0 0 0-1.67-.038c-.515 0-1.027.014-1.537.034zM73.406 1183.945l-1.645 2.094c.551.024 1.105.038 1.661.038.52 0 1.035-.013 1.55-.034l-1.566-2.098zM110.246 1147.149l2.088 1.64a39.02 39.02 0 0 0 .037-1.66c0-.516-.014-1.03-.034-1.54l-2.091 1.56z" style="text-indent:0;text-decoration-line:none;text-decoration-style:solid;text-decoration-color:#000;text-transform:none;block-progression:tb;isolation:auto;mix-blend-mode:normal"/></g><g fill="#fff" fill-rule="evenodd" stroke="#000" stroke-width="2"><path d="M62.873 1140.84l-6.4-10.611-16.03 2.242z" stroke-width=".54666"/><path d="M62.905 1140.7l-1.535-12.296-15.558-4.467z" stroke-width=".54666"/><path d="M62.943 1140.642l3.695-9.202-9.158-9.162z" stroke-width=".54666"/><path d="M63.173 1140.837l5.19-5.774-4.176-9.35z" stroke-width=".54666"/></g><g fill="#fff" fill-rule="evenodd" stroke="#000" stroke-width="2"><path d="M83.826 1140.647l6.4-10.612 16.03 2.242z" stroke-width=".54666"/><path d="M83.794 1140.508l1.534-12.297 15.558-4.467z" stroke-width=".54666"/><path d="M83.756 1140.45l-3.695-9.204 9.157-9.16z" stroke-width=".54666"/><path d="M83.526 1140.644l-5.19-5.774 4.176-9.35z" stroke-width=".54666"/></g><circle cx="759.22" transform="rotate(135)" cy="-863.056" r="41.441" stroke="#fff" stroke-width=".372" fill="none"/><use xlink:href="#path6856" transform="matrix(.211 .211 -.211 .211 91.9 966.967)" width="100%" height="100%"/><use xlink:href="#path6856" transform="matrix(0 .2984 -.2984 0 213.877 1032.798)" width="100%" height="100%"/><use xlink:href="#path6856" transform="matrix(-.211 .211 -.211 -.211 253.578 1165.599)" width="100%" height="100%"/><use xlink:href="#path6856" transform="matrix(-.2984 0 0 -.2984 187.747 1287.576)" width="100%" height="100%"/><use xlink:href="#path6856" transform="matrix(-.211 -.211 .211 -.211 54.947 1327.277)" width="100%" height="100%"/><use xlink:href="#path6856" transform="matrix(0 -.2984 .2984 0 -67.03 1261.446)" width="100%" height="100%"/><use xlink:href="#path6856" transform="matrix(.211 -.211 .211 .211 -106.731 1128.645)" width="100%" height="100%"/><circle cx="759.22" transform="rotate(135)" cy="-863.056" r="44.74" stroke="#fff" stroke-width="1.194" fill="none"/></g></svg>