<?xml version="1.0" encoding="UTF-8" standalone="no"?>
<svg
   xmlns:dc="http://purl.org/dc/elements/1.1/"
   xmlns:cc="http://creativecommons.org/ns#"
   xmlns:rdf="http://www.w3.org/1999/02/22-rdf-syntax-ns#"
   xmlns:svg="http://www.w3.org/2000/svg"
   xmlns="http://www.w3.org/2000/svg"
   xmlns:xlink="http://www.w3.org/1999/xlink"
   width="300"
   height="300"
   viewBox="0 0 300.00002 300"
   id="svg2"
   version="1.1">
  <defs
     id="defs4" />
  <metadata
     id="metadata7">
    <rdf:RDF>
      <cc:Work
         rdf:about="">
        <dc:format>image/svg+xml</dc:format>
        <dc:type
           rdf:resource="http://purl.org/dc/dcmitype/StillImage" />
        <dc:title></dc:title>
      </cc:Work>
    </rdf:RDF>
  </metadata>
  <g
     transform="translate(-123.30511,-29.237303)"
     id="g7294">
    <circle
       style="fill-opacity:0;stroke:#ffffff;stroke-width:1.31106162"
       r="146.01042"
       cy="-319.99582"
       transform="matrix(-0.7071068,0.70710676,-0.7071068,-0.70710676,0,0)"
       cx="-66.515984"
       id="path4138" />
    <path
       style="opacity:1;fill:#ffffff;fill-opacity:0.44723618;stroke:#ffffff;stroke-width:1.29999995;stroke-miterlimit:4;stroke-dasharray:none;stroke-dashoffset:0;stroke-opacity:1"
       id="path7119"
       d="m 288.02755,37.880092 -7.36122,12.750001 -7.36122,12.750002 -7.36121,-12.750002 -7.36122,-12.750001 14.72243,0 z" />
    <use
       x="0"
       y="0"
       xlink:href="#path7119"
       transform="matrix(0.80901699,0.58778525,-0.58778525,0.80901699,157.54771,-126.41914)"
       id="use7123"
       width="100%"
       height="100%" />
    <use
       x="0"
       y="0"
       xlink:href="#path7119"
       transform="matrix(0.30901699,0.95105652,-0.95105652,0.30901699,359.31381,-136.09016)"
       id="use7125"
       width="100%"
       height="100%" />
    <use
       x="0"
       y="0"
       xlink:href="#path7119"
       transform="matrix(-0.30901699,0.95105652,-0.95105652,-0.30901699,528.23048,-25.319046)"
       id="use7127"
       width="100%"
       height="100%" />
    <use
       x="0"
       y="0"
       xlink:href="#path7119"
       transform="matrix(-0.80901699,0.58778525,-0.58778525,-0.80901699,599.77731,163.58339)"
       id="use7129"
       width="100%"
       height="100%" />
    <use
       x="0"
       y="0"
       xlink:href="#path7119"
       transform="matrix(-1,0,0,-1,546.62583,358.46285)"
       id="use7131"
       width="100%"
       height="100%" />
    <use
       x="0"
       y="0"
       xlink:href="#path7119"
       transform="matrix(-0.80901699,-0.58778525,0.58778525,-0.80901699,389.07813,484.88199)"
       id="use7133"
       width="100%"
       height="100%" />
    <use
       x="0"
       y="0"
       xlink:href="#path7119"
       transform="matrix(-0.30901699,-0.95105652,0.95105652,-0.30901699,187.31204,494.55302)"
       id="use7135"
       width="100%"
       height="100%" />
    <use
       x="0"
       y="0"
       xlink:href="#path7119"
       transform="matrix(0.30901699,-0.95105652,0.95105652,0.30901699,18.395359,383.78189)"
       id="use7137"
       width="100%"
       height="100%" />
    <use
       x="0"
       y="0"
       xlink:href="#path7119"
       transform="matrix(0.80901699,-0.58778525,0.58778525,0.80901699,-53.151481,194.87946)"
       id="use7139"
       width="100%"
       height="100%" />
    <circle
       style="opacity:1;fill:#ffffff;fill-opacity:0.57286431;stroke:#ffffff;stroke-width:1.29999995;stroke-miterlimit:4;stroke-dasharray:none;stroke-dashoffset:0;stroke-opacity:1"
       id="path7141"
       cx="273.30511"
       cy="179.23727"
       r="90.509674" />
    <circle
       style="opacity:1;fill:none;fill-opacity:0.44723618;stroke:#ffffff;stroke-width:3;stroke-miterlimit:4;stroke-dasharray:none;stroke-dashoffset:0;stroke-opacity:1"
       id="path7143"
       cx="273.30511"
       cy="179.23727"
       r="107.56843" />
  </g>
</svg>
