<?xml version="1.0" encoding="UTF-8" standalone="no"?>
<svg
   xmlns:dc="http://purl.org/dc/elements/1.1/"
   xmlns:cc="http://creativecommons.org/ns#"
   xmlns:rdf="http://www.w3.org/1999/02/22-rdf-syntax-ns#"
   xmlns:svg="http://www.w3.org/2000/svg"
   xmlns="http://www.w3.org/2000/svg"
   xmlns:xlink="http://www.w3.org/1999/xlink"
   xmlns:sodipodi="http://sodipodi.sourceforge.net/DTD/sodipodi-0.dtd"
   xmlns:inkscape="http://www.inkscape.org/namespaces/inkscape"
   version="1.1"
   id="svg2"
   viewBox="0 0 300.00002 300"
   height="300"
   width="300"
   inkscape:version="0.91 r13725"
   sodipodi:docname="booton-g.svg">
  <sodipodi:namedview
     pagecolor="#ffffff"
     bordercolor="#666666"
     borderopacity="1"
     objecttolerance="10"
     gridtolerance="10"
     guidetolerance="10"
     inkscape:pageopacity="0"
     inkscape:pageshadow="2"
     inkscape:window-width="785"
     inkscape:window-height="704"
     id="namedview72"
     showgrid="false"
     inkscape:zoom="0.78666667"
     inkscape:cx="57.838983"
     inkscape:cy="150"
     inkscape:window-x="581"
     inkscape:window-y="27"
     inkscape:window-maximized="0"
     inkscape:current-layer="svg2" />
  <defs
     id="defs4" />
  <metadata
     id="metadata7">
    <rdf:RDF>
      <cc:Work
         rdf:about="">
        <dc:format>image/svg+xml</dc:format>
        <dc:type
           rdf:resource="http://purl.org/dc/dcmitype/StillImage" />
        <dc:title />
      </cc:Work>
    </rdf:RDF>
  </metadata>
  <g
     id="layer1-3"
     transform="matrix(2.3959331,0,0,2.3959331,-18.025958,-2578.3211)">
    <flowRoot
       id="flowRoot5844"
       style="font-size:40px;line-height:125%;font-family:sans-serif;letter-spacing:0px;word-spacing:0px;fill:#000000"
       xml:space="preserve"
       transform="translate(0,-4.4724e-5)"
       line-height="125%"
       font-size="40px"><flowRegion
         id="flowRegion5846"><rect
           id="rect5848"
           y="874.52002"
           width="59.750999"
           x="118.79"
           height="57.983002" /></flowRegion><flowPara
         id="flowPara5850" /></flowRoot>    <g
       id="g6484"
       transform="translate(2.0542625,3.766148)">
      <circle
         style="fill-opacity:0;stroke:#ffffff;stroke-width:0.56865191;stroke-miterlimit:4;stroke-dasharray:none;stroke-opacity:0.65573772"
         r="58.655052"
         cy="-850.67834"
         transform="matrix(-0.7071068,0.70710676,-0.7071068,-0.70710676,0,0)"
         cx="753.8526"
         id="path4138-4" />
      <circle
         style="fill-opacity:0;stroke:#ffffff;stroke-width:1.33229852"
         r="56.045437"
         cy="-850.67834"
         transform="matrix(-0.7071068,0.70710676,-0.7071068,-0.70710676,0,0)"
         cx="753.8526"
         id="path4138-3-5" />
      <circle
         style="fill-opacity:0;stroke:#ffffff;stroke-width:0.54285258"
         r="60.456455"
         cy="-850.67834"
         transform="matrix(-0.7071068,0.70710676,-0.7071068,-0.70710676,0,0)"
         cx="753.8526"
         id="path4138" />
      <g
         transform="matrix(0.42413683,0,0,0.42413678,4.8462911,751.85055)"
         id="g4168"
         style="fill:#ffffff;fill-opacity:0.53005">
        <path
           inkscape:connector-curvature="0"
           id="path5691"
           style="color:#000000;text-indent:0;text-decoration:none;text-decoration-line:none;text-decoration-style:solid;text-decoration-color:#000000;text-transform:none;block-progression:tb;white-space:normal;isolation:auto;mix-blend-mode:normal;solid-color:#000000;color-rendering:auto;image-rendering:auto;shape-rendering:auto"
           d="m 141.82,814.26 c -17.215,1.5736 -34.048,8.1162 -48.082,19.648 l 1.2773,10.627 21.217,21.217 c 9.0674,-8.3905 20.364,-12.807 31.783,-13.27 l 0,-29.918 -6.1953,-8.3047 z" />
        <path
           inkscape:connector-curvature="0"
           id="path5689"
           style="color:#000000;text-indent:0;text-decoration:none;text-decoration-line:none;text-decoration-style:solid;text-decoration-color:#000000;text-transform:none;block-progression:tb;white-space:normal;isolation:auto;mix-blend-mode:normal;solid-color:#000000;color-rendering:auto;image-rendering:auto;shape-rendering:auto"
           d="m 158.54,814.28 -6.5234,8.3066 0,29.895 c 11.419,0.46369 22.71,4.8904 31.773,13.287 l 21.24,-21.242 1.5117,-10.381 c -13.993,-11.597 -30.796,-18.222 -48.002,-19.865 z" />
        <path
           inkscape:connector-curvature="0"
           id="path5683"
           style="color:#000000;text-indent:0;text-decoration:none;text-decoration-line:none;text-decoration-style:solid;text-decoration-color:#000000;text-transform:none;block-progression:tb;white-space:normal;isolation:auto;mix-blend-mode:normal;solid-color:#000000;color-rendering:auto;image-rendering:auto;shape-rendering:auto"
           d="m 81.772,845.84 c -11.591,13.993 -18.213,30.795 -19.854,47.998 l 8.3125,6.5273 2.3945,0 c 0.20916,-8.0924 1.6723,-16.161 4.4199,-23.9 l 0.50195,-1.4141 25.973,9.2207 c 2.2216,-5.6347 5.5091,-10.965 9.8828,-15.688 l -21.23,-21.232 -10.4,-1.5117 z m -2.3379,33.064 c -2.3192,6.9771 -3.5661,14.209 -3.7617,21.461 l 8.0273,0 c 0.21904,-5.0712 1.3519,-10.265 3.4023,-16.434 l 14.834,5.0488 c 0.17817,-0.6306 0.36494,-1.2599 0.56836,-1.8848 l -23.07,-8.1914 z" />
        <path
           inkscape:connector-curvature="0"
           id="path5681"
           style="color:#000000;text-indent:0;text-decoration:none;text-decoration-line:none;text-decoration-style:solid;text-decoration-color:#000000;text-transform:none;block-progression:tb;white-space:normal;isolation:auto;mix-blend-mode:normal;solid-color:#000000;color-rendering:auto;image-rendering:auto;shape-rendering:auto"
           d="m 218.45,846.1 -10.609,1.2754 -21.225,21.225 c 4.2412,4.5852 7.4619,9.7408 9.6738,15.193 l 24.471,-8.9746 1.4102,-0.51758 0.51563,1.4082 c 2.9222,7.9684 4.4728,16.303 4.6875,24.666 l 2.4394,0 8.293,-6.1856 c -1.5728,-17.217 -8.1226,-34.054 -19.656,-48.09 z m 1.875,32.074 -23,8.4336 c 0.24192,0.71878 0.46152,1.4435 0.66992,2.1699 l 14.672,-4.9902 c 2.1408,6.2244 3.3363,11.458 3.6016,16.588 l 8.0566,0 c -0.20059,-7.5114 -1.5232,-14.999 -4,-22.201 z" />
      </g>
      <path
         inkscape:connector-curvature="0"
         id="path5679"
         style="color:#000000;text-indent:0;text-decoration:none;text-decoration-line:none;text-decoration-style:solid;text-decoration-color:#000000;text-transform:none;block-progression:tb;white-space:normal;isolation:auto;mix-blend-mode:normal;solid-color:#000000;fill:#ffffff;color-rendering:auto;image-rendering:auto;shape-rendering:auto"
         d="m 30.970997,1133.0053 -5.007357,1.6496 5.003201,1.3782 1.979022,-1.4762 z" />
      <g
         transform="matrix(0.42413683,0,0,0.42413678,4.8462911,751.85055)"
         id="g4176"
         style="fill:#ffffff;fill-opacity:0.53005">
        <path
           inkscape:connector-curvature="0"
           id="path5675"
           style="color:#000000;text-indent:0;text-decoration:none;text-decoration-line:none;text-decoration-style:solid;text-decoration-color:#000000;text-transform:none;block-progression:tb;white-space:normal;isolation:auto;mix-blend-mode:normal;solid-color:#000000;color-rendering:auto;image-rendering:auto;shape-rendering:auto"
           d="m 70.206,904.36 -8.3145,6.2012 c 1.5775,17.215 8.1436,34.042 19.68,48.074 l 10.605,-1.2754 21.221,-21.219 c -4.2478,-4.5879 -7.4766,-9.748 -9.6934,-15.205 l -24.461,8.9707 -1.4102,0.51758 -0.51562,-1.4082 c -2.9211,-7.9653 -4.4718,-16.296 -4.6875,-24.656 l -2.4238,0 z m 5.4707,0 c 0.20148,7.5082 1.5262,14.993 4.002,22.191 l 22.988,-8.4297 c -0.243,-0.72096 -0.46269,-1.4471 -0.67188,-2.1758 l -14.67,4.9902 c -2.1391,-6.2197 -3.337,-11.45 -3.6035,-16.576 l -8.0449,0 z" />
        <path
           inkscape:connector-curvature="0"
           id="path5673"
           style="color:#000000;text-indent:0;text-decoration:none;text-decoration-line:none;text-decoration-style:solid;text-decoration-color:#000000;text-transform:none;block-progression:tb;white-space:normal;isolation:auto;mix-blend-mode:normal;solid-color:#000000;color-rendering:auto;image-rendering:auto;shape-rendering:auto"
           d="m 216.29,904.38 c -0.22028,5.0675 -1.3535,10.258 -3.4024,16.422 l -14.834,-5.0488 c -0.17729,0.62846 -0.36401,1.2541 -0.56641,1.877 l 23.076,8.1934 c 2.3173,-6.9714 3.5664,-14.197 3.7637,-21.443 l -8.0371,0 z m 11.084,0 c -0.21084,8.0866 -1.6743,16.149 -4.4199,23.883 l -0.50195,1.4141 -25.979,-9.2227 c -2.2188,5.6364 -5.5051,10.967 -9.8789,15.691 l 21.25,21.248 10.367,1.5078 c 11.597,-13.998 18.217,-30.807 19.855,-48.018 l -8.2812,-6.5039 -2.4121,0 z" />
        <path
           inkscape:connector-curvature="0"
           id="path5671"
           style="color:#000000;text-indent:0;text-decoration:none;text-decoration-line:none;text-decoration-style:solid;text-decoration-color:#000000;text-transform:none;block-progression:tb;white-space:normal;isolation:auto;mix-blend-mode:normal;solid-color:#000000;color-rendering:auto;image-rendering:auto;shape-rendering:auto"
           d="m 116.23,938.97 -21.24,21.24 -1.5098,10.383 c 13.998,11.592 30.807,18.208 48.016,19.844 l 6.5078,-8.2871 0,-29.91 c -11.418,-0.45987 -22.708,-4.8795 -31.773,-13.27 z" />
        <path
           inkscape:connector-curvature="0"
           id="path5669"
           style="color:#000000;text-indent:0;text-decoration:none;text-decoration-line:none;text-decoration-style:solid;text-decoration-color:#000000;text-transform:none;block-progression:tb;white-space:normal;isolation:auto;mix-blend-mode:normal;solid-color:#000000;color-rendering:auto;image-rendering:auto;shape-rendering:auto"
           d="m 183.77,938.97 c -9.0628,8.3875 -20.354,12.806 -31.768,13.271 l 0,29.932 6.1875,8.293 c 17.218,-1.5763 34.053,-8.1278 48.088,-19.666 l -1.2734,-10.598 -21.234,-21.232 z" />
      </g>
      <g
         transform="matrix(0.42413683,0,0,0.42413678,4.8462911,751.85055)"
         id="g4202"
         style="fill:#ffffff">
        <path
           inkscape:connector-curvature="0"
           id="path5687"
           style="color:#000000;text-indent:0;text-decoration:none;text-decoration-line:none;text-decoration-style:solid;text-decoration-color:#000000;text-transform:none;block-progression:tb;white-space:normal;isolation:auto;mix-blend-mode:normal;solid-color:#000000;color-rendering:auto;image-rendering:auto;shape-rendering:auto"
           d="m 90.093,837.08 c -0.92944,0.85313 -1.8479,1.7248 -2.748,2.625 -0.83342,0.83342 -1.6386,1.6844 -2.4316,2.543 l 5.9043,0.85937 -0.72461,-6.0273 z" />
        <path
           inkscape:connector-curvature="0"
           id="path5685"
           style="color:#000000;text-indent:0;text-decoration:none;text-decoration-line:none;text-decoration-style:solid;text-decoration-color:#000000;text-transform:none;block-progression:tb;white-space:normal;isolation:auto;mix-blend-mode:normal;solid-color:#000000;color-rendering:auto;image-rendering:auto;shape-rendering:auto"
           d="m 210.13,837.29 -0.85547,5.8887 6.0098,-0.72266 c -0.85314,-0.92944 -1.7248,-1.8478 -2.625,-2.748 -0.82895,-0.82895 -1.6755,-1.6289 -2.5293,-2.418 z" />
        <path
           inkscape:connector-curvature="0"
           id="path5667"
           style="color:#000000;text-indent:0;text-decoration:none;text-decoration-line:none;text-decoration-style:solid;text-decoration-color:#000000;text-transform:none;block-progression:tb;white-space:normal;isolation:auto;mix-blend-mode:normal;solid-color:#000000;color-rendering:auto;image-rendering:auto;shape-rendering:auto"
           d="m 90.749,961.56 -6.0156,0.72265 c 0.8487,0.92421 1.7161,1.8372 2.6113,2.7324 0.83509,0.83509 1.6866,1.643 2.5469,2.4375 l 0.85742,-5.8926 z" />
        <path
           inkscape:connector-curvature="0"
           id="path5665"
           style="color:#000000;text-indent:0;text-decoration:none;text-decoration-line:none;text-decoration-style:solid;text-decoration-color:#000000;text-transform:none;block-progression:tb;white-space:normal;isolation:auto;mix-blend-mode:normal;solid-color:#000000;color-rendering:auto;image-rendering:auto;shape-rendering:auto"
           d="m 209.2,961.63 0.71875,5.998 c 0.9242,-0.84871 1.8372,-1.7161 2.7324,-2.6113 0.83,-0.83 1.6319,-1.6783 2.4219,-2.5332 l -5.873,-0.85352 z" />
      </g>
      <g
         transform="matrix(0.42413683,0,0,0.42413678,4.8462911,751.85055)"
         style="fill:#ffffff"
         id="g4208">
        <path
           inkscape:connector-curvature="0"
           d="m 78.97,877.6 -0.45508,1.2812 c -5.4739,15.418 -5.387,32.28 0.24609,47.641 l 0.32617,0.89257 1.1914,0 0.22656,-0.084 48.688,-17.855 -0.4668,-1.2754 c -1.3638,-3.7188 -1.3858,-7.779 -0.0606,-11.512 l 0.45508,-1.2812 -50.15,-17.807 z m 8.0729,6.3206 38.716,13.177 c -0.98032,3.5198 -0.962,7.2112 0.0547,10.721 l -38.545,13.11 c -4.81,-13.98 -4.888,-22.97 -0.223,-37.01 z"
           style="color:#000000;text-indent:0;text-decoration:none;text-decoration-line:none;text-decoration-style:solid;text-decoration-color:#000000;text-transform:none;block-progression:tb;white-space:normal;isolation:auto;mix-blend-mode:normal;solid-color:#000000;color-rendering:auto;image-rendering:auto;shape-rendering:auto"
           id="path4138-62-1" />
        <path
           inkscape:connector-curvature="0"
           d="m 221.03,927.11 0.45508,-1.2812 c 5.4739,-15.418 5.387,-32.28 -0.2461,-47.641 l -0.32617,-0.89257 -1.1914,0 -0.22657,0.084 -48.688,17.855 0.4668,1.2754 c 1.3638,3.7188 1.3858,7.779 0.0606,11.512 l -0.45508,1.2812 50.15,17.807 z m -8.073,-6.3206 -38.716,-13.177 c 0.98032,-3.5198 0.962,-7.2112 -0.0547,-10.721 l 38.548,-13.112 c 4.8104,13.987 4.8883,22.974 0.22266,37.01 z"
           style="color:#000000;text-indent:0;text-decoration:none;text-decoration-line:none;text-decoration-style:solid;text-decoration-color:#000000;text-transform:none;block-progression:tb;white-space:normal;isolation:auto;mix-blend-mode:normal;solid-color:#000000;color-rendering:auto;image-rendering:auto;shape-rendering:auto"
           id="use5774" />
      </g>
      <text
         sodipodi:linespacing="125%"
         id="text5852"
         style="font-size:32.36036682px;line-height:125%;font-family:sans-serif;letter-spacing:0px;word-spacing:0px;fill:#000000"
         xml:space="preserve"
         font-size="76.297px"
         y="1138.8646"
         x="59.696682"
         line-height="125%"><tspan
           id="tspan5854"
           font-weight="bold"
           y="1138.8646"
           x="59.696682"
           style="font-style:normal;font-variant:normal;font-weight:normal;font-stretch:normal;font-family:'Abyssinica SIL';-inkscape-font-specification:'Abyssinica SIL';fill:#ffffff">g</tspan></text>
      <text
         xml:space="preserve"
         style="font-size:16.96553993px;line-height:125%;font-family:sans-serif;letter-spacing:0px;word-spacing:0px;fill:#d40000"
         x="625.47162"
         y="982.77966"
         id="text4266"
         sodipodi:linespacing="125%"
         transform="matrix(0.86602658,0.49999799,-0.49999804,0.86602651,0,0)"><tspan
           sodipodi:role="line"
           x="625.47162"
           y="982.77966"
           id="tspan4268"><tspan
             x="625.47162"
             y="982.77966"
             style="fill:#d40000"
             id="tspan4270">1</tspan></tspan></text>
      <text
         sodipodi:linespacing="125%"
         id="text5864"
         style="font-size:16.96547127px;line-height:125%;font-family:sans-serif;letter-spacing:0px;word-spacing:0px;fill:#d40000"
         xml:space="preserve"
         transform="matrix(0.87038149,-0.49237799,0.49237803,0.87038144,0,0)"
         font-size="40px"
         y="1056.0574"
         x="-506.59543"
         line-height="125%"><tspan
           id="tspan5866"
           y="1056.0574"
           x="-506.59543"
           style="fill:#d40000">2</tspan></text>
      <use
         height="100%"
         width="100%"
         id="use5786"
         xlink:href="#path5679"
         y="0"
         x="0"
         transform="translate(9.9668037e-7,1.4210792e-6)" />
      <use
         height="100%"
         width="100%"
         id="use5788"
         transform="matrix(0,1,-1,0,1203.0393,1066.1083)"
         xlink:href="#path5679"
         y="0"
         x="0" />
      <use
         height="100%"
         width="100%"
         id="use5790"
         transform="matrix(-1,0,0,-1,136.93111,2269.1475)"
         xlink:href="#path5679"
         y="0"
         x="0" />
      <use
         height="100%"
         width="100%"
         id="use5792"
         transform="matrix(0,-1,1,0,-1066.1083,1203.0393)"
         xlink:href="#path5679"
         y="0"
         x="0" />
      <circle
         style="fill-opacity:0;stroke:#ffffff;stroke-width:0.39124429"
         r="43.572128"
         cy="-855.15601"
         transform="matrix(-0.71125282,0.70293629,-0.71125282,-0.70293629,0,0)"
         cx="758.89459"
         id="path4138-7" />
      <circle
         r="1.8481187"
         cy="1075.981"
         cx="68.466209"
         id="path5875"
         style="opacity:1;fill:#000000;fill-opacity:1;stroke:#ffffff;stroke-width:0.56865191;stroke-linecap:round;stroke-miterlimit:4;stroke-dasharray:none;stroke-dashoffset:0;stroke-opacity:1" />
      <use
         height="100%"
         width="100%"
         id="use5879"
         transform="matrix(0.95105652,0.30901699,-0.30901699,0.95105652,353.95374,34.373028)"
         xlink:href="#path5875"
         y="0"
         x="0" />
      <use
         height="100%"
         width="100%"
         id="use5881"
         transform="matrix(0.80901699,0.58778525,-0.58778525,0.80901699,679.9619,176.44145)"
         xlink:href="#path5875"
         y="0"
         x="0" />
      <use
         height="100%"
         width="100%"
         id="use5883"
         transform="matrix(0.58778525,0.80901699,-0.80901699,0.58778525,946.11254,412.2986)"
         xlink:href="#path5875"
         y="0"
         x="0" />
      <use
         height="100%"
         width="100%"
         id="use5885"
         transform="matrix(0.30901699,0.95105652,-0.95105652,0.30901699,1126.353,718.85717)"
         xlink:href="#path5875"
         y="0"
         x="0" />
      <use
         height="100%"
         width="100%"
         id="use5887"
         transform="matrix(0,1,-1,0,1203.0399,1066.109)"
         xlink:href="#path5875"
         y="0"
         x="0" />
      <use
         height="100%"
         width="100%"
         id="use5889"
         transform="matrix(-0.30901699,0.95105652,-0.95105652,-0.30901699,1168.667,1420.0628)"
         xlink:href="#path5875"
         y="0"
         x="0" />
      <use
         height="100%"
         width="100%"
         id="use5891"
         transform="matrix(-0.58778525,0.80901699,-0.80901699,-0.58778525,1026.5986,1746.071)"
         xlink:href="#path5875"
         y="0"
         x="0" />
      <use
         height="100%"
         width="100%"
         id="use5893"
         transform="matrix(-0.80901699,0.58778525,-0.58778525,-0.80901699,790.74138,2012.2216)"
         xlink:href="#path5875"
         y="0"
         x="0" />
      <use
         height="100%"
         width="100%"
         id="use5895"
         transform="matrix(-0.95105652,0.30901699,-0.30901699,-0.95105652,484.18282,2192.462)"
         xlink:href="#path5875"
         y="0"
         x="0" />
      <use
         height="100%"
         width="100%"
         id="use5897"
         transform="matrix(-1,0,0,-1,136.93096,2269.1489)"
         xlink:href="#path5875"
         y="0"
         x="0" />
      <use
         height="100%"
         width="100%"
         id="use5899"
         transform="matrix(-0.95105652,-0.30901699,0.30901699,-0.95105652,-217.02278,2234.776)"
         xlink:href="#path5875"
         y="0"
         x="0" />
      <use
         height="100%"
         width="100%"
         id="use5901"
         transform="matrix(-0.80901699,-0.58778525,0.58778525,-0.80901699,-543.03094,2092.7076)"
         xlink:href="#path5875"
         y="0"
         x="0" />
      <use
         height="100%"
         width="100%"
         id="use5903"
         transform="matrix(-0.58778525,-0.80901699,0.80901699,-0.58778525,-809.18157,1856.8504)"
         xlink:href="#path5875"
         y="0"
         x="0" />
      <use
         height="100%"
         width="100%"
         id="use5905"
         transform="matrix(-0.30901699,-0.95105652,0.95105652,-0.30901699,-989.422,1550.2918)"
         xlink:href="#path5875"
         y="0"
         x="0" />
      <use
         height="100%"
         width="100%"
         id="use5907"
         transform="matrix(0,-1,1,0,-1066.109,1203.0399)"
         xlink:href="#path5875"
         y="0"
         x="0" />
      <use
         height="100%"
         width="100%"
         id="use5909"
         transform="matrix(0.30901699,-0.95105652,0.95105652,0.30901699,-1031.736,849.08625)"
         xlink:href="#path5875"
         y="0"
         x="0" />
      <use
         height="100%"
         width="100%"
         id="use5911"
         transform="matrix(0.58778525,-0.80901699,0.80901699,0.58778525,-889.66757,523.07808)"
         xlink:href="#path5875"
         y="0"
         x="0" />
      <use
         height="100%"
         width="100%"
         id="use5913"
         transform="matrix(0.80901699,-0.58778525,0.58778525,0.80901699,-653.81042,256.92746)"
         xlink:href="#path5875"
         y="0"
         x="0" />
      <use
         height="100%"
         width="100%"
         id="use5915"
         transform="matrix(0.95105652,-0.30901699,0.30901699,0.95105652,-347.25186,76.687023)"
         xlink:href="#path5875"
         y="0"
         x="0" />
      <path
         inkscape:connector-curvature="0"
         d="m 38.649034,1172.3304 -2.137887,2.3248 m -7.389752,-12.2506 -2.433463,2.0342 m -6.490041,-28.8827 -2.842703,0.059 c 0.217313,10.6839 3.710795,20.5581 9.512148,28.6659 l -1.428849,1.1884 c 3.087777,3.687 6.408027,7.1626 9.938633,10.4034 l 1.227821,-1.33 c 8.570104,6.8416 19.384012,10.9874 31.155348,11.1498 l 0.03943,-2.8433 c -11.054584,-0.1526 -21.20696,-4.0101 -29.272246,-10.39 l 0.956825,-1.0363 c -3.334741,-3.0614 -6.470149,-6.3453 -9.386088,-9.8292 l -1.048451,0.8718 c -5.400273,-7.6226 -8.647973,-16.8845 -8.851868,-26.9088 z"
         style="fill:none;fill-rule:evenodd;stroke:#ffffff;stroke-width:0.85297787;stroke-linecap:butt;stroke-linejoin:miter;stroke-miterlimit:4;stroke-dasharray:none;stroke-opacity:1"
         id="path5972-1" />
      <use
         height="100%"
         width="100%"
         id="use5990"
         xlink:href="#path5972-1"
         y="0"
         x="0"
         transform="translate(9.9668037e-7,1.4210792e-6)" />
      <use
         height="100%"
         width="100%"
         id="use5992"
         transform="matrix(0,1,-1,0,1203.0432,1066.1147)"
         xlink:href="#path5972-1"
         y="0"
         x="0" />
      <use
         height="100%"
         width="100%"
         id="use5994"
         transform="matrix(-1,0,0,-1,136.92855,2269.1579)"
         xlink:href="#path5972-1"
         y="0"
         x="0" />
      <use
         height="100%"
         width="100%"
         id="use5996"
         transform="matrix(0,-1,1,0,-1066.1147,1203.0432)"
         xlink:href="#path5972-1"
         y="0"
         x="0" />
    </g>
  </g>
</svg>
