<?xml version="1.0" encoding="UTF-8" standalone="no"?>
<!-- Created with Inkscape (http://www.inkscape.org/) -->

<svg
   xmlns:dc="http://purl.org/dc/elements/1.1/"
   xmlns:cc="http://creativecommons.org/ns#"
   xmlns:rdf="http://www.w3.org/1999/02/22-rdf-syntax-ns#"
   xmlns:svg="http://www.w3.org/2000/svg"
   xmlns="http://www.w3.org/2000/svg"
   xmlns:sodipodi="http://sodipodi.sourceforge.net/DTD/sodipodi-0.dtd"
   xmlns:inkscape="http://www.inkscape.org/namespaces/inkscape"
   width="210mm"
   height="297mm"
   viewBox="0 0 744.09448819 1052.3622047"
   id="svg2"
   version="1.1"
   inkscape:version="0.91 r13725"
   sodipodi:docname="border.svg">
  <defs
     id="defs4" />
  <sodipodi:namedview
     id="base"
     pagecolor="#ffffff"
     bordercolor="#666666"
     borderopacity="1.0"
     inkscape:pageopacity="0.0"
     inkscape:pageshadow="2"
     inkscape:zoom="0.90509668"
     inkscape:cx="264.9829"
     inkscape:cy="1048.2729"
     inkscape:document-units="px"
     inkscape:current-layer="layer1"
     showgrid="false"
     showguides="true"
     inkscape:window-width="1366"
     inkscape:window-height="704"
     inkscape:window-x="0"
     inkscape:window-y="27"
     inkscape:window-maximized="1" />
  <metadata
     id="metadata7">
    <rdf:RDF>
      <cc:Work
         rdf:about="">
        <dc:format>image/svg+xml</dc:format>
        <dc:type
           rdf:resource="http://purl.org/dc/dcmitype/StillImage" />
        <dc:title></dc:title>
      </cc:Work>
    </rdf:RDF>
  </metadata>
  <g
     inkscape:label="Layer 1"
     inkscape:groupmode="layer"
     id="layer1">
    <g
       id="g4709"
       transform="matrix(1.0362045,0,0,1.0226796,-11.061577,-13.143998)"
       style="fill:none;stroke:#000000;stroke-opacity:1;stroke-width:1.94284191;stroke-miterlimit:4;stroke-dasharray:none">
      <path
         sodipodi:nodetypes="cccccccccc"
         inkscape:connector-curvature="0"
         id="path4141"
         d="m 379.04242,576.19961 -48.58798,-0.0297 -24.08873,-24.25632 0.11894,-64.06 24.25692,-24.08787 209.43099,0.11862 24.08733,24.25638 -0.11894,64.06 -24.25551,24.08781 -49.34194,-0.0297"
         style="fill:none;fill-opacity:1;stroke:#000000;stroke-width:1.94284189;stroke-miterlimit:4;stroke-dasharray:none;stroke-dashoffset:0;stroke-opacity:1" />
      <path
         sodipodi:nodetypes="ccccccc"
         inkscape:connector-curvature="0"
         id="path4144"
         d="m 492.28472,576.23591 -19.34284,15.71021 -75.25815,0 -19.34285,-15.71021 19.34285,-15.64429 75.25815,0 z"
         style="fill:none;fill-opacity:1;stroke:#000000;stroke-width:1.94284189;stroke-miterlimit:4;stroke-dasharray:none;stroke-dashoffset:0;stroke-opacity:1" />
    </g>
    <path
       style="fill:none;fill-opacity:1;stroke:#000000;stroke-width:1.99992502;stroke-miterlimit:4;stroke-dasharray:none;stroke-dashoffset:0;stroke-opacity:1"
       d="m 214.01149,867.67391 -201.74056,0 0,-351.58436 65.91951,-65.68171 201.74056,0 0,351.58438 z"
       id="rect5345"
       inkscape:connector-curvature="0"
       sodipodi:nodetypes="ccccccc" />
    <path
       style="fill:none;fill-rule:evenodd;stroke:#000000;stroke-width:5;stroke-linecap:butt;stroke-linejoin:miter;stroke-miterlimit:4;stroke-dasharray:none;stroke-opacity:1"
       d="m 40.6472,546.915 0,308.71037"
       id="path5348"
       inkscape:connector-curvature="0"
       sodipodi:nodetypes="cc" />
    <circle
       style="fill:#000000;fill-opacity:0.46733668;stroke:#000000;stroke-width:2;stroke-miterlimit:4;stroke-dasharray:none;stroke-dashoffset:0;stroke-opacity:1"
       id="path5350"
       cx="40.647217"
       cy="668.31689"
       r="8.984375" />
    <g
       id="g6006"
       transform="matrix(0.99950481,0,0,0.99928776,682.85945,323.54998)"
       style="stroke-width:2.00120497;stroke-miterlimit:4;stroke-dasharray:none">
      <path
         id="path5956-6-7"
         style="fill:none;fill-rule:evenodd;stroke:#000000;stroke-width:2.00120497;stroke-linecap:butt;stroke-linejoin:miter;stroke-miterlimit:4;stroke-dasharray:none;stroke-opacity:1"
         d="m 503.77706,306.30555 32.86021,-0.23487 0,34.31159 -31.87426,28.28387 -135.33499,0 -24.84491,3.1e-4 -216.68054,0 -31.874266,-28.28387 0,-34.31158 32.860206,0.23471 0,-137.93562 -32.860206,-0.0932 0,-34.31158 31.874266,-28.28388 216.68054,0 24.84491,3.2e-4 135.33499,0 31.87426,28.28388 0,34.31158 -32.86021,0.093 z"
         inkscape:connector-curvature="0"
         sodipodi:nodetypes="ccccccccccccccccccccc" />
    </g>
    <path
       id="rect6616-5"
       style="fill:none;fill-opacity:0.46733668;stroke:#000000;stroke-width:2;stroke-miterlimit:4;stroke-dasharray:none;stroke-dashoffset:0;stroke-opacity:1"
       d="m 417.41754,-170.22552 0,47.68018 -7.44009,0 c 0,14.00881 0,28.017614 0,42.026414 l 7.44009,14.00875 c 0,18.678321 0,37.35665 0,56.034975 l -7.44009,14.0087479 c -5e-5,14.0087911 0,28.0175821 1.6e-4,42.0263731 l 7.74993,0 0,47.568497 -39.19794,0 0,-19.551146 -15.72376,0 -15.72387,0 -15.72375,19.662868 c -31.44778,4.64e-4 -62.89555,0 -94.34333,0 l -15.72387,-19.662868 -15.72387,0 -15.7239,0 0,19.662868 -38.88781,0 m -0.10924,0.782044 0,-47.68048 7.44009,0 c 0,-14.008704 0,-28.017406 0,-42.0261104 L 150.8462,-9.6931546 c 0,-18.6783284 0,-37.3566484 0,-56.0349784 l 7.44009,-14.00875 c 5e-5,-14.00878 0,-28.017577 -1.6e-4,-42.026367 l -7.74993,0 0,-47.5685 39.19794,0 0,19.55114 c 10.48247,0 20.96491,0 31.44738,0 l 0,17.87574 c 41.93047,-7.2e-4 83.86093,0 125.7914,0 l 0,-17.87574 c 10.48246,-1.6e-4 20.96493,1.3e-4 31.44739,4e-4 l 0,-19.66325 38.88799,0"
       inkscape:connector-curvature="0"
       sodipodi:nodetypes="cccccccccccccccccccccccccccccccccccccccc" />
    <path
       style="fill:none;fill-opacity:0.46733668;stroke:#000000;stroke-width:2;stroke-miterlimit:4;stroke-dasharray:none;stroke-dashoffset:0;stroke-opacity:1"
       d="m 227.48824,-162.65116 112.86572,0 2.7e-4,25.45094 -112.86572,0 z"
       id="rect6635"
       inkscape:connector-curvature="0"
       sodipodi:nodetypes="ccccc" />
  </g>
</svg>
