<svg xmlns="http://www.w3.org/2000/svg" xmlns:xlink="http://www.w3.org/1999/xlink" width="300" height="300" viewBox="0 0 300.00002 300"><g transform="translate(53.39 102.966)"><circle r="146.01" cy="-101.572" transform="rotate(135)" cx="-35.056" stroke="#fff" stroke-width="1.311" fill="none"/><g color="#000" font-weight="400" font-family="sans-serif" white-space="normal" fill="#fff" stroke="#fff" stroke-width="2"><path style="line-height:normal;text-indent:0;text-align:start;text-decoration-line:none;text-decoration-style:solid;text-decoration-color:#000;text-transform:none;block-progression:tb;isolation:auto;mix-blend-mode:normal" d="M203.604 47.643c-.153 27.178-10.594 54.308-31.336 75.05-20.741 20.742-47.871 31.183-75.048 31.336v1.989c27.693-.154 55.339-10.787 76.462-31.91 21.125-21.125 31.758-48.771 31.91-76.465z" overflow="visible"/><path style="line-height:normal;text-indent:0;text-align:start;text-decoration-line:none;text-decoration-style:solid;text-decoration-color:#000;text-transform:none;block-progression:tb;isolation:auto;mix-blend-mode:normal" d="M192.343 47.527c-.125 24.334-9.468 48.63-28.04 67.201-18.569 18.57-42.859 27.913-67.189 28.04v1.986c24.846-.127 49.652-9.66 68.604-28.611 18.953-18.954 28.488-43.766 28.613-68.616z" overflow="visible"/></g><g fill="#fff" stroke="#fff"><path style="line-height:normal;text-indent:0;text-align:start;text-decoration-line:none;text-decoration-style:solid;text-decoration-color:#000;text-transform:none;block-progression:tb;isolation:auto;mix-blend-mode:normal" d="M150.75-7.202c-27.695.152-55.344 10.785-76.47 31.91-21.121 21.122-31.754 48.764-31.91 76.454h1.986c.156-27.174 10.6-54.299 31.338-75.038C96.438 5.381 123.571-5.062 150.751-5.213z" color="#000" font-weight="400" font-family="sans-serif" white-space="normal" overflow="visible" stroke-width="2"/><path style="line-height:normal;text-indent:0;text-align:start;text-decoration-line:none;text-decoration-style:solid;text-decoration-color:#000;text-transform:none;block-progression:tb;isolation:auto;mix-blend-mode:normal" d="M150.856 4.06c-24.849.126-49.66 9.66-68.613 28.613-18.95 18.951-28.486 43.757-28.613 68.602h1.99c.128-24.329 9.47-48.617 28.039-67.186 18.57-18.57 42.864-27.915 67.197-28.04z" color="#000" font-weight="400" font-family="sans-serif" white-space="normal" overflow="visible" stroke-width="2"/><path style="line-height:normal;text-indent:0;text-align:start;text-decoration-line:none;text-decoration-style:solid;text-decoration-color:#000;text-transform:none;block-progression:tb;isolation:auto;mix-blend-mode:normal" d="M150.856 32.226c-17.641.125-35.246 6.905-48.701 20.36-13.452 13.452-20.232 31.05-20.36 48.689h1.987C83.91 84.153 90.5 67.07 103.569 54c13.073-13.072 30.162-19.663 47.287-19.789z" color="#000" font-weight="400" font-family="sans-serif" white-space="normal" overflow="visible" stroke-width="2"/><path style="line-height:normal;text-indent:0;text-align:start;text-decoration-line:none;text-decoration-style:solid;text-decoration-color:#000;text-transform:none;block-progression:tb;isolation:auto;mix-blend-mode:normal" d="M150.856 42.081c-15.12.126-30.2 5.943-41.73 17.473-11.528 11.528-17.348 26.605-17.475 41.72h1.988c.128-14.599 5.755-29.158 16.9-40.304 11.149-11.148 25.714-16.775 40.317-16.9z" color="#000" font-weight="400" font-family="sans-serif" white-space="normal" overflow="visible" stroke-width="2"/><path d="M66.263-577.515a38.49 38.49 0 0 1-27.217 11.274 38.49 38.49 0 0 1-27.217-11.274l27.217-27.216z" transform="rotate(135 -51.124 -228.216)" stroke-width=".346"/></g><circle r="123.484" cy="-101.572" transform="rotate(135)" cx="-35.056" stroke="#fff" stroke-width="1.109" fill="none"/><path id="a" fill="#fff" fill-opacity=".447" stroke="#fff" d="M92.612-94.22h7.997v13.612h-7.997z"/><use xlink:href="#a" transform="rotate(7.2 96.61 47.113)" width="100%" height="100%"/><use xlink:href="#a" transform="rotate(14.4 96.61 47.113)" width="100%" height="100%"/><use xlink:href="#a" transform="rotate(21.6 96.61 47.113)" width="100%" height="100%"/><use xlink:href="#a" transform="rotate(28.8 96.61 47.113)" width="100%" height="100%"/><use xlink:href="#a" transform="rotate(36 96.61 47.113)" width="100%" height="100%"/><use xlink:href="#a" transform="rotate(43.2 96.61 47.113)" width="100%" height="100%"/><use xlink:href="#a" transform="rotate(50.4 96.61 47.113)" width="100%" height="100%"/><use xlink:href="#a" transform="rotate(57.6 96.61 47.113)" width="100%" height="100%"/><use xlink:href="#a" transform="rotate(64.8 96.61 47.113)" width="100%" height="100%"/><use xlink:href="#a" transform="rotate(72 96.61 47.113)" width="100%" height="100%"/><use xlink:href="#a" transform="rotate(79.2 96.61 47.113)" width="100%" height="100%"/><use xlink:href="#a" transform="rotate(86.4 96.61 47.113)" width="100%" height="100%"/><use xlink:href="#a" transform="rotate(93.6 96.61 47.113)" width="100%" height="100%"/><use xlink:href="#a" transform="rotate(100.8 96.61 47.113)" width="100%" height="100%"/><use xlink:href="#a" transform="rotate(108 96.61 47.113)" width="100%" height="100%"/><use xlink:href="#a" transform="rotate(115.2 96.61 47.113)" width="100%" height="100%"/><use xlink:href="#a" transform="rotate(122.4 96.61 47.113)" width="100%" height="100%"/><use xlink:href="#a" transform="rotate(129.6 96.61 47.113)" width="100%" height="100%"/><use xlink:href="#a" transform="rotate(136.8 96.61 47.113)" width="100%" height="100%"/><use xlink:href="#a" transform="rotate(144 96.61 47.113)" width="100%" height="100%"/><use xlink:href="#a" transform="rotate(151.2 96.61 47.113)" width="100%" height="100%"/><use xlink:href="#a" transform="rotate(158.4 96.61 47.113)" width="100%" height="100%"/><use xlink:href="#a" transform="rotate(165.6 96.61 47.113)" width="100%" height="100%"/><use xlink:href="#a" transform="rotate(172.8 96.61 47.113)" width="100%" height="100%"/><use xlink:href="#a" transform="rotate(180 96.61 47.113)" width="100%" height="100%"/><use xlink:href="#a" transform="rotate(-172.8 96.61 47.113)" width="100%" height="100%"/><use xlink:href="#a" transform="rotate(-165.6 96.61 47.113)" width="100%" height="100%"/><use xlink:href="#a" transform="rotate(-158.4 96.61 47.113)" width="100%" height="100%"/><use xlink:href="#a" transform="rotate(-151.2 96.61 47.113)" width="100%" height="100%"/><use xlink:href="#a" transform="rotate(-144 96.61 47.113)" width="100%" height="100%"/><use xlink:href="#a" transform="rotate(-136.8 96.61 47.113)" width="100%" height="100%"/><use xlink:href="#a" transform="rotate(-129.6 96.61 47.113)" width="100%" height="100%"/><use xlink:href="#a" transform="rotate(-122.4 96.61 47.113)" width="100%" height="100%"/><use xlink:href="#a" transform="rotate(-115.2 96.61 47.113)" width="100%" height="100%"/><use xlink:href="#a" transform="rotate(-108 96.61 47.113)" width="100%" height="100%"/><use xlink:href="#a" transform="rotate(-100.8 96.61 47.113)" width="100%" height="100%"/><use xlink:href="#a" transform="rotate(-93.6 96.61 47.113)" width="100%" height="100%"/><use xlink:href="#a" transform="rotate(-86.4 96.61 47.113)" width="100%" height="100%"/><use xlink:href="#a" transform="rotate(-79.2 96.61 47.113)" width="100%" height="100%"/><use xlink:href="#a" transform="rotate(-72 96.61 47.113)" width="100%" height="100%"/><use xlink:href="#a" transform="rotate(-64.8 96.61 47.113)" width="100%" height="100%"/><use xlink:href="#a" transform="rotate(-57.6 96.61 47.113)" width="100%" height="100%"/><use xlink:href="#a" transform="rotate(-50.4 96.61 47.113)" width="100%" height="100%"/><use xlink:href="#a" transform="rotate(-43.2 96.61 47.113)" width="100%" height="100%"/><use xlink:href="#a" transform="rotate(-36 96.61 47.113)" width="100%" height="100%"/><use xlink:href="#a" transform="rotate(-28.8 96.61 47.113)" width="100%" height="100%"/><use xlink:href="#a" transform="rotate(-21.6 96.61 47.113)" width="100%" height="100%"/><use xlink:href="#a" transform="rotate(-14.4 96.61 47.113)" width="100%" height="100%"/><use xlink:href="#a" transform="rotate(-7.2 96.61 47.113)" width="100%" height="100%"/><path style="line-height:normal;text-indent:0;text-align:start;text-decoration-line:none;text-decoration-style:solid;text-decoration-color:#000;text-transform:none;block-progression:tb;isolation:auto;mix-blend-mode:normal" d="M149.35-47.691c-37.722.207-75.38 14.688-104.154 43.462C16.43 24.538 1.946 62.187 1.734 99.9h2.705C4.652 62.891 18.875 25.946 47.122-2.3c28.253-28.253 65.21-42.476 102.228-42.683z" color="#000" font-weight="400" font-family="sans-serif" white-space="normal" overflow="visible" fill="#fff" stroke="#fff" stroke-width="1.3"/><path style="line-height:normal;text-indent:0;text-align:start;text-decoration-line:none;text-decoration-style:solid;text-decoration-color:#000;text-transform:none;block-progression:tb;isolation:auto;mix-blend-mode:normal" d="M149.494-32.353c-33.844.171-67.638 13.158-93.452 38.972C30.23 32.43 17.244 66.216 17.07 100.056h2.71c.175-33.136 12.9-66.218 38.19-91.508 25.294-25.294 58.383-38.021 91.524-38.193z" color="#000" font-weight="400" font-family="sans-serif" white-space="normal" overflow="visible" fill="#fff" stroke="#fff" stroke-width="1.3"/></g></svg>