<svg xmlns="http://www.w3.org/2000/svg" xmlns:xlink="http://www.w3.org/1999/xlink" width="300" height="300" viewBox="0 0 300.00002 300"><g transform="translate(0 -1.271)"><circle r="135.357" cy="-213.031" transform="rotate(135)" cx=".899" stroke="#fff" stroke-width="3.218" fill="none"/><circle r="146.01" cy="-213.031" transform="rotate(135)" cx=".899" stroke="#fff" stroke-width="1.311" fill="none"/><circle r="141.124" cy="-213.031" transform="rotate(135)" cx="-.138" stroke="#fff" stroke-width="1.267" stroke-dasharray="10.13360234,5.06680116" stroke-opacity=".596" fill="none"/><g fill="#fff" color="#000" white-space="normal"><path d="M88.636 84.402a90.82 90.82 0 0 0-2.815 2.689 90.685 90.685 0 0 0-2.49 2.604l6.047.88-.742-6.173zM211.595 84.617l-.876 6.032 6.156-.74a90.948 90.948 0 0 0-2.689-2.815 90.94 90.94 0 0 0-2.59-2.477zM89.308 211.912l-6.162.74c.87.947 1.758 1.883 2.675 2.8a90.77 90.77 0 0 0 2.609 2.496l.878-6.036zM210.643 211.984l.736 6.144a90.931 90.931 0 0 0 2.799-2.675c.85-.85 1.672-1.719 2.48-2.595l-6.015-.874z" style="text-indent:0;text-decoration-line:none;text-decoration-style:solid;text-decoration-color:#000;text-transform:none;block-progression:tb;isolation:auto;mix-blend-mode:normal"/></g><g color="#000" white-space="normal" fill="#fff"><path style="text-indent:0;text-decoration-line:none;text-decoration-style:solid;text-decoration-color:#000;text-transform:none;block-progression:tb;isolation:auto;mix-blend-mode:normal" d="M59.322 147.39a90.817 90.817 0 0 0-.089 3.892c0 1.207.033 2.407.08 3.603l4.9-3.654-4.89-3.84zM146.42 60.597l3.645 4.885 3.83-4.877a90.948 90.948 0 0 0-3.892-.089c-1.2 0-2.393.034-3.583.08zM149.96 237.079l-3.833 4.88c1.284.055 2.574.088 3.87.088 1.21 0 2.412-.031 3.611-.08l-3.647-4.888zM235.808 151.333l4.865 3.824c.055-1.285.088-2.574.088-3.87 0-1.203-.033-2.399-.08-3.59l-4.873 3.636z"/></g><circle r="96.571" cy="-213.031" transform="rotate(135)" cx=".899" stroke="#fff" stroke-width=".867" fill="none"/><g transform="translate(-250 -303.948)"><circle cx="39.046" transform="rotate(135)" cy="-604.731" r="104.257" stroke="#fff" stroke-width="2.781" fill="none"/><path id="a" d="M387 332.862h26v19s-14-4.56-26 0z" fill="#fff" stroke-width="2"/><use height="100%" width="100%" transform="rotate(36 400.008 455.221)" xlink:href="#a"/><use height="100%" width="100%" transform="rotate(72 400.008 455.221)" xlink:href="#a"/><use height="100%" width="100%" transform="rotate(108 400.008 455.221)" xlink:href="#a"/><use height="100%" width="100%" transform="rotate(144 400.008 455.221)" xlink:href="#a"/><use height="100%" width="100%" transform="rotate(180 400.008 455.221)" xlink:href="#a"/><use height="100%" width="100%" transform="rotate(-144 400.008 455.221)" xlink:href="#a"/><use height="100%" width="100%" transform="rotate(-108 400.008 455.221)" xlink:href="#a"/><use height="100%" width="100%" transform="rotate(-72 400.008 455.221)" xlink:href="#a"/><use height="100%" width="100%" transform="rotate(-36 400.008 455.221)" xlink:href="#a"/></g><g transform="translate(-250 -303.948)" opacity=".671"><circle cx="39.046" transform="rotate(135)" cy="-604.731" r="69.665" stroke="#fff" stroke-width="5" fill="none"/><path id="b" d="M352.75 381.279l27.07-11.453 6.792 16.053s-13.094.933-27.07 11.453z" fill="none" stroke="#fff" stroke-width="3.849"/><use height="100%" width="100%" transform="rotate(45 400 455.24)" xlink:href="#b"/><use height="100%" width="100%" transform="rotate(90 400 455.24)" xlink:href="#b"/><use height="100%" width="100%" transform="rotate(135 400 455.24)" xlink:href="#b"/><use height="100%" width="100%" transform="rotate(180 400 455.24)" xlink:href="#b"/><use height="100%" width="100%" transform="rotate(-135 400 455.24)" xlink:href="#b"/><use height="100%" width="100%" transform="rotate(-90 400 455.24)" xlink:href="#b"/><use height="100%" width="100%" transform="rotate(-45 400 455.24)" xlink:href="#b"/></g><circle cx="150.008" cy="151.273" r="44.901" fill="#fff" fill-opacity=".623" stroke="#fff" stroke-width="5"/></g></svg>