<svg xmlns="http://www.w3.org/2000/svg" width="300" height="300" viewBox="0 0 300.00002 300"><circle transform="rotate(135)" cy="-212.132" r="146.01" stroke="#fff" stroke-width="1.311" fill="none"/><g color="#000" font-weight="400" font-family="sans-serif" white-space="normal" fill="#fff" stroke="#fff" stroke-width="2"><path d="M256.994 150.609c-.153 27.178-10.594 54.308-31.336 75.05-20.741 20.742-47.871 31.183-75.049 31.336v1.989c27.694-.154 55.34-10.787 76.463-31.91 21.124-21.125 31.757-48.771 31.91-76.465z" style="line-height:normal;text-indent:0;text-align:start;text-decoration-line:none;text-decoration-style:solid;text-decoration-color:#000;text-transform:none;block-progression:tb;isolation:auto;mix-blend-mode:normal" overflow="visible"/><path d="M245.732 150.493c-.124 24.334-9.467 48.63-28.039 67.202-18.569 18.569-42.86 27.912-67.19 28.039v1.986c24.847-.127 49.653-9.66 68.604-28.611 18.954-18.954 28.489-43.766 28.614-68.616z" style="line-height:normal;text-indent:0;text-align:start;text-decoration-line:none;text-decoration-style:solid;text-decoration-color:#000;text-transform:none;block-progression:tb;isolation:auto;mix-blend-mode:normal" overflow="visible"/></g><g fill="#fff" stroke="#fff"><path d="M204.14 95.764c-27.695.152-55.344 10.785-76.47 31.91-21.121 21.122-31.754 48.764-31.91 76.454h1.986c.156-27.174 10.599-54.298 31.338-75.037 20.743-20.744 47.877-31.186 75.057-31.338z" style="line-height:normal;text-indent:0;text-align:start;text-decoration-line:none;text-decoration-style:solid;text-decoration-color:#000;text-transform:none;block-progression:tb;isolation:auto;mix-blend-mode:normal" color="#000" font-weight="400" font-family="sans-serif" white-space="normal" overflow="visible" stroke-width="2"/><path d="M204.246 107.026c-24.849.126-49.66 9.66-68.613 28.613-18.951 18.951-28.486 43.757-28.614 68.602h1.99c.129-24.329 9.471-48.617 28.04-67.186 18.57-18.57 42.864-27.915 67.197-28.04z" style="line-height:normal;text-indent:0;text-align:start;text-decoration-line:none;text-decoration-style:solid;text-decoration-color:#000;text-transform:none;block-progression:tb;isolation:auto;mix-blend-mode:normal" color="#000" font-weight="400" font-family="sans-serif" white-space="normal" overflow="visible" stroke-width="2"/><path d="M204.246 135.192c-17.642.125-35.246 6.905-48.701 20.36-13.453 13.452-20.232 31.05-20.36 48.689h1.987c.128-17.121 6.717-34.204 19.787-47.273 13.072-13.073 30.161-19.664 47.287-19.79z" style="line-height:normal;text-indent:0;text-align:start;text-decoration-line:none;text-decoration-style:solid;text-decoration-color:#000;text-transform:none;block-progression:tb;isolation:auto;mix-blend-mode:normal" color="#000" font-weight="400" font-family="sans-serif" white-space="normal" overflow="visible" stroke-width="2"/><path d="M204.246 145.048c-15.12.125-30.2 5.942-41.73 17.472-11.528 11.528-17.348 26.605-17.475 41.721h1.988c.128-14.6 5.755-29.16 16.9-40.305 11.149-11.148 25.714-16.775 40.317-16.9z" style="line-height:normal;text-indent:0;text-align:start;text-decoration-line:none;text-decoration-style:solid;text-decoration-color:#000;text-transform:none;block-progression:tb;isolation:auto;mix-blend-mode:normal" color="#000" font-weight="400" font-family="sans-serif" white-space="normal" overflow="visible" stroke-width="2"/><path transform="rotate(135 -45.755 -165.675)" d="M66.263-577.515a38.49 38.49 0 0 1-27.217 11.274 38.49 38.49 0 0 1-27.217-11.274l27.217-27.216z" stroke-width=".346"/></g><circle transform="rotate(135)" cy="-212.132" r="123.484" stroke="#fff" stroke-width="1.109" fill="none"/><path fill="#fff" fill-opacity=".447" stroke="#fff" d="M146.002 8.747h7.997v13.612h-7.997zM163.747 9.36l7.934 1.002-1.706 13.505-7.934-1.003zM181.275 12.192l7.746 1.99-3.385 13.183-7.746-1.988zM198.31 17.2l7.436 2.944-5.011 12.656-7.436-2.944zM214.584 24.303l7.008 3.852-6.558 11.928-7.008-3.852zM229.839 33.389l6.47 4.7-8.001 11.012-6.47-4.7zM243.834 44.315l5.83 5.474-9.318 9.923-5.83-5.475zM256.35 56.91l5.098 6.16-10.489 8.678-5.097-6.162zM267.19 70.973l4.284 6.752-11.493 7.294-4.285-6.752zM276.18 86.286l3.404 7.235-12.316 5.796-3.405-7.236zM283.18 102.602l2.47 7.606-12.945 4.206-2.471-7.605zM288.08 119.669l1.499 7.855-13.371 2.55-1.499-7.855zM290.803 137.215l.502 7.981-13.585.855-.502-7.981zM291.306 154.963l-.503 7.981-13.585-.854.502-7.982zM289.579 172.635l-1.499 7.856-13.37-2.55 1.498-7.856zM285.652 189.951l-2.472 7.606-12.945-4.207 2.47-7.605zM279.584 206.639l-3.405 7.236-12.316-5.796 3.405-7.236zM271.474 222.434l-4.285 6.752-11.493-7.294 4.285-6.752zM261.448 237.087l-5.098 6.162-10.488-8.676 5.097-6.162zM249.663 250.37l-5.83 5.474-9.317-9.923 5.83-5.474zM236.308 262.07l-6.47 4.701-8-11.012 6.47-4.7zM221.592 272.005l-7.008 3.852-6.558-11.928 7.008-3.853zM205.746 280.016l-7.436 2.943-5.01-12.656 7.435-2.944zM189.021 285.978l-7.746 1.989-3.385-13.185 7.746-1.989zM171.68 289.797l-7.933 1.002-1.706-13.505 7.934-1.002zM153.998 291.412h-7.997V277.8h7.997zM136.254 290.8l-7.934-1.003 1.706-13.505 7.934 1.002zM118.725 287.967l-7.746-1.99 3.385-13.184 7.746 1.99zM101.69 282.96l-7.436-2.944 5.011-12.656 7.435 2.944zM85.416 275.857l-7.008-3.852 6.558-11.929 7.008 3.853zM70.161 266.77l-6.47-4.7 8.001-11.013 6.47 4.7zM56.166 255.844l-5.83-5.475 9.318-9.922 5.83 5.474zM43.65 243.249l-5.098-6.162 10.489-8.676 5.097 6.161zM32.812 229.185l-4.285-6.752 11.493-7.293 4.285 6.752zM23.82 213.874l-3.405-7.236 12.317-5.796 3.405 7.236zM16.82 197.557l-2.472-7.606 12.946-4.206 2.471 7.605zM11.92 180.49l-1.499-7.855 13.371-2.55 1.499 7.855zM9.196 162.944l-.502-7.981 13.585-.855.503 7.981zM8.695 145.195l.502-7.98 13.586.854-.503 7.981zM10.421 127.524l1.499-7.856 13.37 2.55-1.498 7.856zM14.35 110.208l2.47-7.606 12.946 4.207-2.471 7.605zM20.416 93.52l3.405-7.236 12.316 5.796-3.404 7.236zM28.526 77.726l4.285-6.752 11.493 7.293-4.285 6.752zM38.552 63.071l5.098-6.162 10.488 8.677-5.098 6.162zM50.336 49.79l5.83-5.475 9.317 9.923-5.83 5.474zM63.692 38.089l6.47-4.7 8 11.012-6.469 4.7zM78.408 28.155l7.008-3.853 6.558 11.929-7.008 3.852zM94.254 20.143l7.436-2.944 5.01 12.657-7.435 2.943zM110.98 14.181l7.745-1.989 3.385 13.185-7.746 1.988zM128.32 10.362l7.933-1.002 1.707 13.504-7.934 1.003z"/><path d="M202.74 55.275c-37.722.207-75.38 14.688-104.154 43.462-28.768 28.768-43.25 66.416-43.462 104.13h2.705c.213-37.01 14.436-73.954 42.683-102.201 28.253-28.253 65.21-42.476 102.228-42.683z" style="line-height:normal;text-indent:0;text-align:start;text-decoration-line:none;text-decoration-style:solid;text-decoration-color:#000;text-transform:none;block-progression:tb;isolation:auto;mix-blend-mode:normal" color="#000" font-weight="400" font-family="sans-serif" white-space="normal" overflow="visible" fill="#fff" stroke="#fff" stroke-width="1.3"/><path d="M202.884 70.614c-33.844.17-67.638 13.157-93.453 38.971-25.81 25.812-38.797 59.597-38.971 93.437h2.71c.175-33.136 12.9-66.218 38.19-91.508 25.294-25.294 58.382-38.021 91.524-38.192z" style="line-height:normal;text-indent:0;text-align:start;text-decoration-line:none;text-decoration-style:solid;text-decoration-color:#000;text-transform:none;block-progression:tb;isolation:auto;mix-blend-mode:normal" color="#000" font-weight="400" font-family="sans-serif" white-space="normal" overflow="visible" fill="#fff" stroke="#fff" stroke-width="1.3"/></svg>