<?xml version="1.0" encoding="UTF-8" standalone="no"?>
<svg
   xmlns:dc="http://purl.org/dc/elements/1.1/"
   xmlns:cc="http://creativecommons.org/ns#"
   xmlns:rdf="http://www.w3.org/1999/02/22-rdf-syntax-ns#"
   xmlns:svg="http://www.w3.org/2000/svg"
   xmlns="http://www.w3.org/2000/svg"
   xmlns:xlink="http://www.w3.org/1999/xlink"
   width="300"
   height="300"
   viewBox="0 0 300.00002 300"
   id="svg2"
   version="1.1">
  <defs
     id="defs4" />
  <metadata
     id="metadata7">
    <rdf:RDF>
      <cc:Work
         rdf:about="">
        <dc:format>image/svg+xml</dc:format>
        <dc:type
           rdf:resource="http://purl.org/dc/dcmitype/StillImage" />
        <dc:title></dc:title>
      </cc:Work>
    </rdf:RDF>
  </metadata>
  <g
     transform="translate(53.389838,102.96611)"
     id="g6969">
    <circle
       style="fill-opacity:0;stroke:#ffffff;stroke-width:1.31106162"
       r="146.01042"
       cy="-101.57169"
       transform="matrix(-0.7071068,0.70710676,-0.7071068,-0.70710676,0,0)"
       cx="-35.055729"
       id="path4138" />
    <g
       transform="translate(-303.38988,-408.18557)"
       id="g6648">
      <path
         style="color:#000000;font-style:normal;font-variant:normal;font-weight:normal;font-stretch:normal;font-size:medium;line-height:normal;font-family:sans-serif;text-indent:0;text-align:start;text-decoration:none;text-decoration-line:none;text-decoration-style:solid;text-decoration-color:#000000;letter-spacing:normal;word-spacing:normal;text-transform:none;direction:ltr;block-progression:tb;writing-mode:lr-tb;baseline-shift:baseline;text-anchor:start;white-space:normal;clip-rule:nonzero;display:inline;overflow:visible;visibility:visible;opacity:1;isolation:auto;mix-blend-mode:normal;color-interpolation:sRGB;color-interpolation-filters:linearRGB;solid-color:#000000;solid-opacity:1;fill:#ffffff;fill-opacity:1;fill-rule:nonzero;stroke:#ffffff;stroke-width:2;stroke-linecap:butt;stroke-linejoin:miter;stroke-miterlimit:4;stroke-dasharray:none;stroke-dashoffset:0;stroke-opacity:1;color-rendering:auto;image-rendering:auto;shape-rendering:auto;text-rendering:auto;enable-background:accumulate"
         d="m 506.99414,455.82812 c -0.15312,27.17807 -10.5938,54.30884 -31.33594,75.05079 -20.74145,20.74144 -47.8715,31.18257 -75.04882,31.33593 l 0,1.98828 c 27.69332,-0.15327 55.33918,-10.78628 76.46289,-31.91015 21.1242,-21.1242 31.75712,-48.77071 31.91015,-76.46485 z"
         id="path4138-3" />
      <path
         style="color:#000000;font-style:normal;font-variant:normal;font-weight:normal;font-stretch:normal;font-size:medium;line-height:normal;font-family:sans-serif;text-indent:0;text-align:start;text-decoration:none;text-decoration-line:none;text-decoration-style:solid;text-decoration-color:#000000;letter-spacing:normal;word-spacing:normal;text-transform:none;direction:ltr;block-progression:tb;writing-mode:lr-tb;baseline-shift:baseline;text-anchor:start;white-space:normal;clip-rule:nonzero;display:inline;overflow:visible;visibility:visible;opacity:1;isolation:auto;mix-blend-mode:normal;color-interpolation:sRGB;color-interpolation-filters:linearRGB;solid-color:#000000;solid-opacity:1;fill:#ffffff;fill-opacity:1;fill-rule:nonzero;stroke:#ffffff;stroke-width:2;stroke-linecap:butt;stroke-linejoin:miter;stroke-miterlimit:4;stroke-dasharray:none;stroke-dashoffset:0;stroke-opacity:1;color-rendering:auto;image-rendering:auto;shape-rendering:auto;text-rendering:auto;enable-background:accumulate"
         d="m 495.73242,455.71289 c -0.12485,24.33362 -9.46759,48.6297 -28.03906,67.20117 -18.56899,18.56899 -42.8594,27.91205 -67.18945,28.03906 l 0,1.98633 c 24.84598,-0.12703 49.65238,-9.66 68.60351,-28.61133 18.95373,-18.95372 28.48851,-43.76562 28.61328,-68.61523 z"
         id="path4138-3-7" />
    </g>
    <g
       id="g6641"
       transform="translate(-248.64777,-353.43803)">
      <path
         style="color:#000000;font-style:normal;font-variant:normal;font-weight:normal;font-stretch:normal;font-size:medium;line-height:normal;font-family:sans-serif;text-indent:0;text-align:start;text-decoration:none;text-decoration-line:none;text-decoration-style:solid;text-decoration-color:#000000;letter-spacing:normal;word-spacing:normal;text-transform:none;direction:ltr;block-progression:tb;writing-mode:lr-tb;baseline-shift:baseline;text-anchor:start;white-space:normal;clip-rule:nonzero;display:inline;overflow:visible;visibility:visible;opacity:1;isolation:auto;mix-blend-mode:normal;color-interpolation:sRGB;color-interpolation-filters:linearRGB;solid-color:#000000;solid-opacity:1;fill:#ffffff;fill-opacity:1;fill-rule:nonzero;stroke:#ffffff;stroke-width:2;stroke-linecap:butt;stroke-linejoin:miter;stroke-miterlimit:4;stroke-dasharray:none;stroke-dashoffset:0;stroke-opacity:1;color-rendering:auto;image-rendering:auto;shape-rendering:auto;text-rendering:auto;enable-background:accumulate"
         d="m 399.39844,346.23633 c -27.69575,0.15186 -55.34501,10.78446 -76.47071,31.91015 -21.12122,21.12122 -31.75389,48.76326 -31.91015,76.45313 l 1.98633,0 c 0.15635,-27.17379 10.59893,-54.29815 31.33789,-75.03711 20.74355,-20.74354 47.87703,-31.18606 75.05664,-31.33789 z"
         id="path5755" />
      <path
         style="color:#000000;font-style:normal;font-variant:normal;font-weight:normal;font-stretch:normal;font-size:medium;line-height:normal;font-family:sans-serif;text-indent:0;text-align:start;text-decoration:none;text-decoration-line:none;text-decoration-style:solid;text-decoration-color:#000000;letter-spacing:normal;word-spacing:normal;text-transform:none;direction:ltr;block-progression:tb;writing-mode:lr-tb;baseline-shift:baseline;text-anchor:start;white-space:normal;clip-rule:nonzero;display:inline;overflow:visible;visibility:visible;opacity:1;isolation:auto;mix-blend-mode:normal;color-interpolation:sRGB;color-interpolation-filters:linearRGB;solid-color:#000000;solid-opacity:1;fill:#ffffff;fill-opacity:1;fill-rule:nonzero;stroke:#ffffff;stroke-width:2;stroke-linecap:butt;stroke-linejoin:miter;stroke-miterlimit:4;stroke-dasharray:none;stroke-dashoffset:0;stroke-opacity:1;color-rendering:auto;image-rendering:auto;shape-rendering:auto;text-rendering:auto;enable-background:accumulate"
         d="m 399.50391,357.49805 c -24.84874,0.12556 -49.66005,9.66024 -68.61329,28.61328 -18.95074,18.95074 -28.48557,43.75635 -28.61328,68.60156 l 1.99024,0 c 0.1279,-24.32858 9.47068,-48.61716 28.03906,-67.18555 18.57098,-18.57097 42.8646,-27.91537 67.19727,-28.04101 z"
         id="path5751" />
      <path
         style="color:#000000;font-style:normal;font-variant:normal;font-weight:normal;font-stretch:normal;font-size:medium;line-height:normal;font-family:sans-serif;text-indent:0;text-align:start;text-decoration:none;text-decoration-line:none;text-decoration-style:solid;text-decoration-color:#000000;letter-spacing:normal;word-spacing:normal;text-transform:none;direction:ltr;block-progression:tb;writing-mode:lr-tb;baseline-shift:baseline;text-anchor:start;white-space:normal;clip-rule:nonzero;display:inline;overflow:visible;visibility:visible;opacity:1;isolation:auto;mix-blend-mode:normal;color-interpolation:sRGB;color-interpolation-filters:linearRGB;solid-color:#000000;solid-opacity:1;fill:#ffffff;fill-opacity:1;fill-rule:nonzero;stroke:#ffffff;stroke-width:2;stroke-linecap:butt;stroke-linejoin:miter;stroke-miterlimit:4;stroke-dasharray:none;stroke-dashoffset:0;stroke-opacity:1;color-rendering:auto;image-rendering:auto;shape-rendering:auto;text-rendering:auto;enable-background:accumulate"
         d="m 399.50391,385.66406 c -17.64159,0.12528 -35.24632,6.90472 -48.70118,20.35938 -13.45236,13.45236 -20.2319,31.05085 -20.35937,48.68945 l 1.98633,0 c 0.12806,-17.12144 6.71772,-34.20386 19.78711,-47.27344 13.07262,-13.07262 30.16151,-19.66375 47.28711,-19.78906 z"
         id="path5747" />
      <path
         style="color:#000000;font-style:normal;font-variant:normal;font-weight:normal;font-stretch:normal;font-size:medium;line-height:normal;font-family:sans-serif;text-indent:0;text-align:start;text-decoration:none;text-decoration-line:none;text-decoration-style:solid;text-decoration-color:#000000;letter-spacing:normal;word-spacing:normal;text-transform:none;direction:ltr;block-progression:tb;writing-mode:lr-tb;baseline-shift:baseline;text-anchor:start;white-space:normal;clip-rule:nonzero;display:inline;overflow:visible;visibility:visible;opacity:1;isolation:auto;mix-blend-mode:normal;color-interpolation:sRGB;color-interpolation-filters:linearRGB;solid-color:#000000;solid-opacity:1;fill:#ffffff;fill-opacity:1;fill-rule:nonzero;stroke:#ffffff;stroke-width:2;stroke-linecap:butt;stroke-linejoin:miter;stroke-miterlimit:4;stroke-dasharray:none;stroke-dashoffset:0;stroke-opacity:1;color-rendering:auto;image-rendering:auto;shape-rendering:auto;text-rendering:auto;enable-background:accumulate"
         d="m 399.50391,395.51953 c -15.1193,0.12505 -30.20002,5.9424 -41.73047,17.47266 -11.52797,11.52797 -17.34741,26.60501 -17.47461,41.7207 l 1.98828,0 c 0.12732,-14.59958 5.75474,-29.15904 16.90039,-40.30469 11.14814,-11.14813 25.71327,-16.77496 40.31641,-16.90039 z"
         id="path5743" />
      <path
         d="m 66.262621,-577.51485 a 38.490074,38.490074 0 0 1 -27.216593,11.27348 38.490074,38.490074 0 0 1 -27.216593,-11.27348 l 27.216593,-27.2166 z"
         id="path4138-2"
         transform="matrix(-0.7071068,0.70710676,-0.7071068,-0.70710676,0,0)"
         style="fill:#ffffff;fill-opacity:1;stroke:#ffffff;stroke-width:0.34561136" />
    </g>
    <circle
       style="fill-opacity:0;stroke:#ffffff;stroke-width:1.10878706"
       r="123.4835"
       cy="-101.57169"
       transform="matrix(-0.7071068,0.70710676,-0.7071068,-0.70710676,0,0)"
       cx="-35.055725"
       id="path4138-8" />
    <rect
       style="opacity:1;fill:#ffffff;fill-opacity:0.44723618;stroke:#ffffff;stroke-width:1;stroke-miterlimit:4;stroke-dasharray:none;stroke-dashoffset:0;stroke-opacity:1"
       id="rect5828"
       width="7.9967055"
       height="13.611808"
       x="92.611816"
       y="-94.219582" />
    <use
       x="0"
       y="0"
       xlink:href="#rect5828"
       transform="matrix(0.9921147,0.12533323,-0.12533323,0.9921147,6.6666731,-11.736963)"
       id="use6232"
       width="100%"
       height="100%" />
    <use
       x="0"
       y="0"
       xlink:href="#rect5828"
       transform="matrix(0.96858316,0.24868989,-0.24868989,0.96858316,14.751809,-22.545823)"
       id="use6234"
       width="100%"
       height="100%" />
    <use
       x="0"
       y="0"
       xlink:href="#rect5828"
       transform="matrix(0.92977649,0.36812455,-0.36812455,0.92977649,24.127901,-32.256103)"
       id="use6236"
       width="100%"
       height="100%" />
    <use
       x="0"
       y="0"
       xlink:href="#rect5828"
       transform="matrix(0.87630668,0.48175367,-0.48175367,0.87630668,34.647084,-40.714699)"
       id="use6238"
       width="100%"
       height="100%" />
    <use
       x="0"
       y="0"
       xlink:href="#rect5828"
       transform="matrix(0.80901699,0.58778525,-0.58778525,0.80901699,46.14345,-47.788178)"
       id="use6240"
       width="100%"
       height="100%" />
    <use
       x="0"
       y="0"
       xlink:href="#rect5828"
       transform="matrix(0.72896863,0.68454711,-0.68454711,0.72896863,58.435733,-53.36501)"
       id="use6242"
       width="100%"
       height="100%" />
    <use
       x="0"
       y="0"
       xlink:href="#rect5828"
       transform="matrix(0.63742399,0.77051324,-0.77051324,0.63742399,71.330033,-57.357236)"
       id="use6244"
       width="100%"
       height="100%" />
    <use
       x="0"
       y="0"
       xlink:href="#rect5828"
       transform="matrix(0.53582679,0.84432793,-0.84432793,0.53582679,84.623003,-59.701888)"
       id="use6246"
       width="100%"
       height="100%" />
    <use
       x="0"
       y="0"
       xlink:href="#rect5828"
       transform="matrix(0.42577929,0.90482705,-0.90482705,0.42577929,98.105053,-60.36201)"
       id="use6248"
       width="100%"
       height="100%" />
    <use
       x="0"
       y="0"
       xlink:href="#rect5828"
       transform="matrix(0.30901699,0.95105652,-0.95105652,0.30901699,111.56349,-59.327181)"
       id="use6250"
       width="100%"
       height="100%" />
    <use
       x="0"
       y="0"
       xlink:href="#rect5828"
       transform="matrix(0.18738131,0.98228725,-0.98228725,0.18738131,124.78612,-56.613718)"
       id="use6252"
       width="100%"
       height="100%" />
    <use
       x="0"
       y="0"
       xlink:href="#rect5828"
       transform="matrix(0.06279052,0.99802673,-0.99802673,0.06279052,137.56438,-52.264409)"
       id="use6254"
       width="100%"
       height="100%" />
    <use
       x="0"
       y="0"
       xlink:href="#rect5828"
       transform="matrix(-0.06279052,0.99802673,-0.99802673,-0.06279052,149.6968,-46.347862)"
       id="use6256"
       width="100%"
       height="100%" />
    <use
       x="0"
       y="0"
       xlink:href="#rect5828"
       transform="matrix(-0.18738131,0.98228725,-0.98228725,-0.18738131,160.99201,-38.957376)"
       id="use6258"
       width="100%"
       height="100%" />
    <use
       x="0"
       y="0"
       xlink:href="#rect5828"
       transform="matrix(-0.30901699,0.95105652,-0.95105652,-0.30901699,171.27186,-30.209489)"
       id="use6260"
       width="100%"
       height="100%" />
    <use
       x="0"
       y="0"
       xlink:href="#rect5828"
       transform="matrix(-0.42577929,0.90482705,-0.90482705,-0.42577929,180.37425,-20.242188)"
       id="use6262"
       width="100%"
       height="100%" />
    <use
       x="0"
       y="0"
       xlink:href="#rect5828"
       transform="matrix(-0.53582679,0.84432793,-0.84432793,-0.53582679,188.15565,-9.2126477)"
       id="use6264"
       width="100%"
       height="100%" />
    <use
       x="0"
       y="0"
       xlink:href="#rect5828"
       transform="matrix(-0.63742399,0.77051324,-0.77051324,-0.63742399,194.49327,2.7051843)"
       id="use6266"
       width="100%"
       height="100%" />
    <use
       x="0"
       y="0"
       xlink:href="#rect5828"
       transform="matrix(-0.72896863,0.68454711,-0.68454711,-0.72896863,199.28729,15.323364)"
       id="use6268"
       width="100%"
       height="100%" />
    <use
       x="0"
       y="0"
       xlink:href="#rect5828"
       transform="matrix(-0.80901699,0.58778525,-0.58778525,-0.80901699,202.462,28.442904)"
       id="use6270"
       width="100%"
       height="100%" />
    <use
       x="0"
       y="0"
       xlink:href="#rect5828"
       transform="matrix(-0.87630668,0.48175367,-0.48175367,-0.87630668,203.96735,41.856874)"
       id="use6272"
       width="100%"
       height="100%" />
    <use
       x="0"
       y="0"
       xlink:href="#rect5828"
       transform="matrix(-0.92977649,0.36812455,-0.36812455,-0.92977649,203.77962,55.353744)"
       id="use6274"
       width="100%"
       height="100%" />
    <use
       x="0"
       y="0"
       xlink:href="#rect5828"
       transform="matrix(-0.96858316,0.24868989,-0.24868989,-0.96858316,201.90178,68.720664)"
       id="use6276"
       width="100%"
       height="100%" />
    <use
       x="0"
       y="0"
       xlink:href="#rect5828"
       transform="matrix(-0.9921147,0.12533323,-0.12533323,-0.9921147,198.36342,81.746814)"
       id="use6278"
       width="100%"
       height="100%" />
    <use
       x="0"
       y="0"
       xlink:href="#rect5828"
       transform="matrix(-1,0,0,-1,193.22033,94.226774)"
       id="use6280"
       width="100%"
       height="100%" />
    <use
       x="0"
       y="0"
       xlink:href="#rect5828"
       transform="matrix(-0.9921147,-0.12533323,0.12533323,-0.9921147,186.55366,105.96374)"
       id="use6282"
       width="100%"
       height="100%" />
    <use
       x="0"
       y="0"
       xlink:href="#rect5828"
       transform="matrix(-0.96858316,-0.24868989,0.24868989,-0.96858316,178.46852,116.7726)"
       id="use6284"
       width="100%"
       height="100%" />
    <use
       x="0"
       y="0"
       xlink:href="#rect5828"
       transform="matrix(-0.92977649,-0.36812455,0.36812455,-0.92977649,169.09244,126.48285)"
       id="use6286"
       width="100%"
       height="100%" />
    <use
       x="0"
       y="0"
       xlink:href="#rect5828"
       transform="matrix(-0.87630668,-0.48175367,0.48175367,-0.87630668,158.57325,134.94144)"
       id="use6288"
       width="100%"
       height="100%" />
    <use
       x="0"
       y="0"
       xlink:href="#rect5828"
       transform="matrix(-0.80901699,-0.58778525,0.58778525,-0.80901699,147.07688,142.01501)"
       id="use6290"
       width="100%"
       height="100%" />
    <use
       x="0"
       y="0"
       xlink:href="#rect5828"
       transform="matrix(-0.72896863,-0.68454711,0.68454711,-0.72896863,134.78461,147.59183)"
       id="use6292"
       width="100%"
       height="100%" />
    <use
       x="0"
       y="0"
       xlink:href="#rect5828"
       transform="matrix(-0.63742399,-0.77051324,0.77051324,-0.63742399,121.89031,151.58397)"
       id="use6294"
       width="100%"
       height="100%" />
    <use
       x="0"
       y="0"
       xlink:href="#rect5828"
       transform="matrix(-0.53582679,-0.84432793,0.84432793,-0.53582679,108.59733,153.92864)"
       id="use6296"
       width="100%"
       height="100%" />
    <use
       x="0"
       y="0"
       xlink:href="#rect5828"
       transform="matrix(-0.42577929,-0.90482705,0.90482705,-0.42577929,95.115303,154.58882)"
       id="use6298"
       width="100%"
       height="100%" />
    <use
       x="0"
       y="0"
       xlink:href="#rect5828"
       transform="matrix(-0.30901699,-0.95105652,0.95105652,-0.30901699,81.656853,153.55396)"
       id="use6300"
       width="100%"
       height="100%" />
    <use
       x="0"
       y="0"
       xlink:href="#rect5828"
       transform="matrix(-0.18738131,-0.98228725,0.98228725,-0.18738131,68.434223,150.84049)"
       id="use6302"
       width="100%"
       height="100%" />
    <use
       x="0"
       y="0"
       xlink:href="#rect5828"
       transform="matrix(-0.06279052,-0.99802673,0.99802673,-0.06279052,55.655943,146.49119)"
       id="use6304"
       width="100%"
       height="100%" />
    <use
       x="0"
       y="0"
       xlink:href="#rect5828"
       transform="matrix(0.06279052,-0.99802673,0.99802673,0.06279052,43.523537,140.57465)"
       id="use6306"
       width="100%"
       height="100%" />
    <use
       x="0"
       y="0"
       xlink:href="#rect5828"
       transform="matrix(0.18738131,-0.98228725,0.98228725,0.18738131,32.228334,133.18416)"
       id="use6308"
       width="100%"
       height="100%" />
    <use
       x="0"
       y="0"
       xlink:href="#rect5828"
       transform="matrix(0.30901699,-0.95105652,0.95105652,0.30901699,21.948483,124.43626)"
       id="use6310"
       width="100%"
       height="100%" />
    <use
       x="0"
       y="0"
       xlink:href="#rect5828"
       transform="matrix(0.42577929,-0.90482705,0.90482705,0.42577929,12.846089,114.46897)"
       id="use6312"
       width="100%"
       height="100%" />
    <use
       x="0"
       y="0"
       xlink:href="#rect5828"
       transform="matrix(0.53582679,-0.84432793,0.84432793,0.53582679,5.0646931,103.43943)"
       id="use6314"
       width="100%"
       height="100%" />
    <use
       x="0"
       y="0"
       xlink:href="#rect5828"
       transform="matrix(0.63742399,-0.77051324,0.77051324,0.63742399,-1.2729659,91.521594)"
       id="use6316"
       width="100%"
       height="100%" />
    <use
       x="0"
       y="0"
       xlink:href="#rect5828"
       transform="matrix(0.72896863,-0.68454711,0.68454711,0.72896863,-6.0669539,78.903414)"
       id="use6318"
       width="100%"
       height="100%" />
    <use
       x="0"
       y="0"
       xlink:href="#rect5828"
       transform="matrix(0.80901699,-0.58778525,0.58778525,0.80901699,-9.2416649,65.783884)"
       id="use6320"
       width="100%"
       height="100%" />
    <use
       x="0"
       y="0"
       xlink:href="#rect5828"
       transform="matrix(0.87630668,-0.48175367,0.48175367,0.87630668,-10.74702,52.369914)"
       id="use6322"
       width="100%"
       height="100%" />
    <use
       x="0"
       y="0"
       xlink:href="#rect5828"
       transform="matrix(0.92977649,-0.36812455,0.36812455,0.92977649,-10.559289,38.873044)"
       id="use6324"
       width="100%"
       height="100%" />
    <use
       x="0"
       y="0"
       xlink:href="#rect5828"
       transform="matrix(0.96858316,-0.24868989,0.24868989,0.96858316,-8.6814359,25.506124)"
       id="use6326"
       width="100%"
       height="100%" />
    <use
       x="0"
       y="0"
       xlink:href="#rect5828"
       transform="matrix(0.9921147,-0.12533323,0.12533323,0.9921147,-5.1430769,12.479974)"
       id="use6328"
       width="100%"
       height="100%" />
    <path
       style="color:#000000;font-style:normal;font-variant:normal;font-weight:normal;font-stretch:normal;font-size:medium;line-height:normal;font-family:sans-serif;text-indent:0;text-align:start;text-decoration:none;text-decoration-line:none;text-decoration-style:solid;text-decoration-color:#000000;letter-spacing:normal;word-spacing:normal;text-transform:none;direction:ltr;block-progression:tb;writing-mode:lr-tb;baseline-shift:baseline;text-anchor:start;white-space:normal;clip-rule:nonzero;display:inline;overflow:visible;visibility:visible;opacity:1;isolation:auto;mix-blend-mode:normal;color-interpolation:sRGB;color-interpolation-filters:linearRGB;solid-color:#000000;solid-opacity:1;fill:#ffffff;fill-opacity:1;fill-rule:nonzero;stroke:#ffffff;stroke-width:1.29999995;stroke-linecap:butt;stroke-linejoin:miter;stroke-miterlimit:4;stroke-dasharray:none;stroke-dashoffset:0;stroke-opacity:1;color-rendering:auto;image-rendering:auto;shape-rendering:auto;text-rendering:auto;enable-background:accumulate"
       d="M 149.35049,-47.691241 C 111.6284,-47.484401 73.969633,-33.002619 45.196064,-4.2290557 16.428591,24.538404 1.9467091,62.187334 1.7338891,99.901424 l 2.70541,0 C 4.6522501,62.890244 18.875231,25.946404 47.122055,-2.3004157 75.375123,-30.553479 112.33139,-44.776371 149.35049,-44.983171 Z"
       id="path5755-9" />
    <path
       style="color:#000000;font-style:normal;font-variant:normal;font-weight:normal;font-stretch:normal;font-size:medium;line-height:normal;font-family:sans-serif;text-indent:0;text-align:start;text-decoration:none;text-decoration-line:none;text-decoration-style:solid;text-decoration-color:#000000;letter-spacing:normal;word-spacing:normal;text-transform:none;direction:ltr;block-progression:tb;writing-mode:lr-tb;baseline-shift:baseline;text-anchor:start;white-space:normal;clip-rule:nonzero;display:inline;overflow:visible;visibility:visible;opacity:1;isolation:auto;mix-blend-mode:normal;color-interpolation:sRGB;color-interpolation-filters:linearRGB;solid-color:#000000;solid-opacity:1;fill:#ffffff;fill-opacity:1;fill-rule:nonzero;stroke:#ffffff;stroke-width:1.29999995;stroke-linecap:butt;stroke-linejoin:miter;stroke-miterlimit:4;stroke-dasharray:none;stroke-dashoffset:0;stroke-opacity:1;color-rendering:auto;image-rendering:auto;shape-rendering:auto;text-rendering:auto;enable-background:accumulate"
       d="M 149.49414,-32.352579 C 115.64973,-32.181569 81.856303,-19.195168 56.041653,6.6192043 30.230423,32.430434 17.243821,66.216104 17.069871,100.05571 l 2.71074,0 C 19.954821,66.919764 32.679843,33.838294 57.970303,8.5478343 83.264303,-16.746147 116.35263,-29.473389 149.49414,-29.644509 Z"
       id="path5751-7" />
  </g>
</svg>
