<svg xmlns="http://www.w3.org/2000/svg" viewBox="0 0 349 349.00001" height="349" width="349"><path d="M56.079 173.128c0-50.702 33.394-147.505 33.394-147.505L3.44 174.21z" fill="#fff" fill-opacity=".721" stroke="#fff" stroke-width=".568" stroke-linecap="round"/><path d="M57.042 175.348c0 50.702 33.395 147.505 33.395 147.505L4.405 174.266z" fill="#fff" fill-opacity=".393" stroke="#fff" stroke-width=".568" stroke-linecap="round"/><path d="M259.861 322.428H89.139L3.778 174.578l85.361-147.85h170.722l85.361 147.85z" fill="none" stroke="#fff" stroke-width="5.678" stroke-linecap="round"/><path d="M4.528 174.408h340.91" fill="none" stroke="#fff" stroke-width="2.839"/><path d="M90.48 23.92s-34.065 97.541-34.065 148.243c0 50.703 34.065 148.243 34.065 148.243M260.452 27.784s34.065 95.258 34.065 144.862c0 49.605-34.065 144.863-34.065 144.863" fill="none" stroke="#fff" stroke-width="1.136"/><path d="M294.512 173.656c0-50.702-34.53-147.505-34.53-147.505L347.15 174.74z" fill="#fff" fill-opacity=".392" stroke="#fff" stroke-width=".568" stroke-linecap="round"/><path d="M294.684 175.877c0 50.702-35.665 147.505-35.665 147.505l86.032-148.588z" fill="#fff" fill-opacity=".721" stroke="#fff" stroke-width=".568" stroke-linecap="round"/><g font-weight="400" font-size="33.086" font-family="sans-serif" letter-spacing="0" word-spacing="0"><text y="835.349" x="75.643" style="line-height:125%" fill="#fff" transform="translate(0 -703.362)"><tspan y="835.349" x="75.643"><tspan y="835.349" x="75.643" font-size="72.375">13:</tspan></tspan></text><text y="828.574" x="200.537" style="line-height:125%" transform="translate(0 -703.362)"><tspan y="828.574" x="200.537" font-size="53.764" fill="#fff">30</tspan></text></g><text style="line-height:125%;text-align:center" x="81.302" y="216.329" font-weight="400" font-size="33.086" font-family="sans-serif" letter-spacing="0" word-spacing="0" text-anchor="middle" fill="#fff"><tspan x="153.927" y="216.329" style="text-align:start" text-anchor="start"><tspan x="153.927" y="216.329" style="text-align:start" dx="0 0 0">12</tspan></tspan><tspan x="100.389" y="257.686" style="text-align:start" text-anchor="start"><tspan x="100.389" y="257.686" style="text-align:start" dx="0 0 0 0 0 0 0 0 0">Grudzień</tspan></tspan><tspan x="132.86" y="299.042" style="text-align:start" text-anchor="start"><tspan x="132.86" y="299.042" style="text-align:start">2016</tspan></tspan></text><g transform="translate(9.186 -699.81)"><path d="M104.33 890.113h149.968v110.677H104.329z"/><circle r="24.068" cy="939.296" cx="146.569" fill="#fff" stroke="#fff" stroke-width="2" stroke-linecap="round"/><path d="M134.268 938.761c-54.46 61.42 117.25 47.304 95.202 3.21-8.693-17.388-18.181 2.143-31.02-17.116-7.447-11.17-21.045 13.906-23.534 13.906-12.231 0-27.506-2.39-40.648 0z" fill="none" stroke="#fff" stroke-width="2"/></g></svg>