<svg xmlns="http://www.w3.org/2000/svg" xmlns:xlink="http://www.w3.org/1999/xlink" width="300" height="300" viewBox="0 0 300.00001 300"><g transform="translate(0 -752.362)"><circle cx="532" cy="-744.132" r="132.142" transform="rotate(135)" fill="none" stroke="#fff" stroke-width="3.141"/><g id="a" fill="#fff" fill-opacity="0" stroke="#fff" stroke-opacity=".383"><path d="M42.569 899.23a105.21 105.21 0 0 1 103.29-102.332" stroke-width=".945"/><path d="M50.858 899.456a96.918 96.918 0 0 1 94.716-94.259" stroke-width="8"/></g><use xlink:href="#a" transform="rotate(90 149.762 903.59)" width="100%" height="100%"/><g fill="none" stroke="#fff" stroke-opacity=".383"><path d="M256.954 907.95a105.21 105.21 0 0 1-103.29 102.332" stroke-width=".945"/><path d="M248.666 907.724a96.918 96.918 0 0 1-94.717 94.259" stroke-width="8"/></g><g fill="none" stroke="#fff" stroke-opacity=".383"><path d="M145.402 1010.783A105.21 105.21 0 0 1 43.07 907.493" stroke-width=".945"/><path d="M145.628 1002.494a96.918 96.918 0 0 1-94.26-94.717" stroke-width="8"/></g><circle cx="532" cy="-744.132" r="142.544" transform="rotate(135)" fill="none" stroke="#fff" stroke-width="1.28"/><circle cx="532" cy="-744.132" r="137.767" transform="rotate(135)" fill="none" stroke="#fff" stroke-width="1.237" stroke-dasharray="9.89274432,4.94637216" stroke-opacity=".596"/><path id="b" d="M42.476 957.623a116.908 116.908 0 0 1-1.32-107.987" fill="#fff" fill-opacity="0" stroke="#fff" stroke-width="7" stroke-linecap="round"/><use height="100%" width="100%" transform="rotate(90 150.253 902.121)" xlink:href="#b"/><use height="100%" width="100%" transform="rotate(180 150.003 902.371)" xlink:href="#b"/><use height="100%" width="100%" transform="rotate(-90 150.003 902.371)" xlink:href="#b"/><path d="M264.554 902.542H242.92" id="c" fill="none" fill-rule="evenodd" stroke="#fff" stroke-width="1.269"/><use xlink:href="#c" transform="rotate(90 150.001 902.364)" width="100%" height="100%"/><use xlink:href="#c" transform="rotate(180 150.001 902.364)" width="100%" height="100%"/><use xlink:href="#c" transform="rotate(-90 150.001 902.364)" width="100%" height="100%"/><path style="line-height:normal;text-indent:0;text-align:start;text-decoration-line:none;text-decoration-style:solid;text-decoration-color:#000;text-transform:none;block-progression:tb;isolation:auto;mix-blend-mode:normal" d="M149.999 813.876c-1.14 0-2.28.027-3.42.07l3.478 4.665 3.655-4.653a89.79 89.79 0 0 0-3.713-.082z" color="#000" font-weight="400" font-family="sans-serif" white-space="normal" overflow="visible" fill="#fff"/><path style="line-height:normal;text-indent:0;text-align:start;text-decoration-line:none;text-decoration-style:solid;text-decoration-color:#000;text-transform:none;block-progression:tb;isolation:auto;mix-blend-mode:normal" d="M141.823 814.261c-17.215 1.574-34.048 8.116-48.082 19.649l1.277 10.627 21.217 21.216c9.068-8.39 20.364-12.807 31.783-13.27v-29.917l-6.195-8.305zm16.719.024l-6.524 8.306v29.895c11.42.464 22.71 4.89 31.774 13.287l21.24-21.242 1.512-10.381c-13.993-11.597-30.797-18.222-48.002-19.865zm-76.77 31.55c-11.59 13.993-18.213 30.796-19.853 47.998l8.312 6.528h2.395a77.39 77.39 0 0 1 4.42-23.9l.502-1.415 25.972 9.221a50.09 50.09 0 0 1 9.883-15.687l-21.23-21.233-10.4-1.512zM79.434 878.9a74.374 74.374 0 0 0-3.761 21.46H83.7c.219-5.07 1.352-10.264 3.402-16.433l14.834 5.049c.178-.63.365-1.26.569-1.885l-23.07-8.191zm139.018-32.797l-10.61 1.275-21.224 21.225a50.056 50.056 0 0 1 9.674 15.193l24.47-8.974 1.41-.518.516 1.408a77.38 77.38 0 0 1 4.688 24.666h2.44l8.292-6.185c-1.573-17.218-8.122-34.054-19.656-48.09zm1.875 32.074l-23 8.434c.242.719.461 1.443.67 2.17l14.672-4.99c2.14 6.224 3.336 11.458 3.601 16.587h8.057a74.307 74.307 0 0 0-4-22.2z" color="#000" font-weight="400" font-family="sans-serif" white-space="normal" overflow="visible" fill="#fff" fill-opacity=".53"/><path style="line-height:normal;text-indent:0;text-align:start;text-decoration-line:none;text-decoration-style:solid;text-decoration-color:#000;text-transform:none;block-progression:tb;isolation:auto;mix-blend-mode:normal" d="M61.595 898.664a89.896 89.896 0 0 0-.01 7.138l4.666-3.48-4.657-3.658zm176.814.293l-4.639 3.46 4.63 3.637c.096-2.365.099-4.732.01-7.097z" color="#000" font-weight="400" font-family="sans-serif" white-space="normal" overflow="visible" fill="#fff"/><path style="line-height:normal;text-indent:0;text-align:start;text-decoration-line:none;text-decoration-style:solid;text-decoration-color:#000;text-transform:none;block-progression:tb;isolation:auto;mix-blend-mode:normal" d="M70.206 904.36l-8.315 6.202c1.578 17.215 8.144 34.042 19.68 48.074l10.606-1.275 21.22-21.219a50.12 50.12 0 0 1-9.693-15.205l-24.461 8.97-1.41.518-.516-1.408a77.38 77.38 0 0 1-4.687-24.656h-2.424zm5.47 0a74.344 74.344 0 0 0 4.002 22.192l22.989-8.43a49.97 49.97 0 0 1-.672-2.175l-14.67 4.99c-2.14-6.22-3.337-11.45-3.604-16.576h-8.044zm140.618.018c-.22 5.068-1.354 10.259-3.403 16.422l-14.834-5.049a49.914 49.914 0 0 1-.566 1.877l23.076 8.194a74.38 74.38 0 0 0 3.764-21.444h-8.037zm11.084 0a77.39 77.39 0 0 1-4.42 23.883l-.502 1.414-25.979-9.222a50.037 50.037 0 0 1-9.879 15.691l21.25 21.248 10.368 1.508c11.597-13.998 18.216-30.807 19.855-48.018l-8.281-6.504h-2.412zm-111.151 34.59l-21.24 21.24-1.51 10.383c13.998 11.592 30.807 18.208 48.016 19.844l6.508-8.287v-29.91c-11.418-.46-22.708-4.88-31.774-13.27zm67.541.002c-9.062 8.388-20.354 12.806-31.767 13.272v29.931l6.187 8.293c17.218-1.576 34.054-8.127 48.088-19.666l-1.273-10.597-21.235-21.233z" color="#000" font-weight="400" font-family="sans-serif" white-space="normal" overflow="visible" fill="#fff" fill-opacity=".53"/><g transform="rotate(135 150.832 904.946)" id="e"><circle id="d" cx="122.771" cy="778.181" r="1.237"/><use xlink:href="#d" width="100%" height="100%"/><use xlink:href="#d" transform="rotate(3.9 149.521 901.431)" width="100%" height="100%"/><use xlink:href="#d" transform="rotate(7.8 149.521 901.431)" width="100%" height="100%"/><use xlink:href="#d" transform="rotate(11.7 149.521 901.431)" width="100%" height="100%"/><use xlink:href="#d" transform="rotate(15.6 149.521 901.431)" width="100%" height="100%"/><use xlink:href="#d" transform="rotate(19.5 149.521 901.431)" width="100%" height="100%"/><use xlink:href="#d" transform="rotate(23.4 149.521 901.431)" width="100%" height="100%"/></g><use height="100%" width="100%" transform="rotate(90 149.882 902.97)" xlink:href="#e"/><use height="100%" width="100%" transform="rotate(180 149.625 902.72)" xlink:href="#e"/><use height="100%" width="100%" transform="rotate(-90 150.625 902.22)" xlink:href="#e"/><path style="line-height:normal;text-indent:0;text-align:start;text-decoration-line:none;text-decoration-style:solid;text-decoration-color:#000;text-transform:none;block-progression:tb;isolation:auto;mix-blend-mode:normal" d="M222.007 997.127l-2.533 1.609 4.952 7.903s-.493.288-.921.58c-.428.292-.858.581-1.289.867l-.567.295-.567.295-7.065-12.432c6.2-4.093 12.08-8.868 17.538-14.326a112.316 112.316 0 0 0 14.327-17.54l12.483 7.02-.676 1.114-.676 1.114c-.276.407-.555.813-.8 1.246-4.221-2.69-3.603-2.284-7.86-5.002l-1.614 2.528 7.697 4.912s-.565.742-.862 1.138a125.53 125.53 0 0 1-1.814 2.363c-.308.392-.298.383-.64.833-3.79-2.931-3.038-2.363-7.042-5.443l-1.829 2.378 7.033 5.317c-.407.5-1.012 1.16-1.34 1.54-.33.38-.66.758-.995 1.134-.334.377-.651.735-1.16 1.243-3.572-3.19-2.721-2.338-6.52-5.676l-2.029 2.209 6.313 5.901c-.438.506-.384.403-.74.767a121.373 121.373 0 0 1-2.22 2.218c-.383.374.001 0-.795.707-3.594-3.806-2.43-2.582-5.838-6.31l-2.214 2.025 5.672 6.548c-.5.424-1.114 1.027-1.511 1.378-.398.35-.797.698-1.197 1.043-.401.344-.82.764-1.178 1.07-3.04-3.965-2.27-3.043-5.34-7.054l-2.383 1.824 5.318 7.15c-.479.36-.891.685-1.305 1.006-.413.321-.828.64-1.245.955-.416.316-.835.628-1.467 1.076-2.922-4.124-2.392-3.26-5.101-7.523z" id="f" color="#000" font-weight="400" font-family="sans-serif" white-space="normal" overflow="visible" fill="#fff" fill-rule="evenodd"/><path d="M222.007 997.127l-2.533 1.609 4.952 7.903s-.493.288-.921.58c-.428.292-.858.581-1.289.867l-.567.295-.567.295-7.065-12.432c6.2-4.093 12.08-8.868 17.538-14.326a112.316 112.316 0 0 0 14.327-17.54l12.483 7.02-.676 1.114-.676 1.114c-.276.407-.555.813-.8 1.246-4.221-2.69-3.603-2.284-7.86-5.002l-1.614 2.528 7.697 4.912s-.565.742-.862 1.138a125.53 125.53 0 0 1-1.814 2.363c-.308.392-.298.383-.64.833-3.79-2.931-3.038-2.363-7.042-5.443l-1.829 2.378 7.033 5.317c-.407.5-1.012 1.16-1.34 1.54-.33.38-.66.758-.995 1.134-.334.377-.651.735-1.16 1.243-3.572-3.19-2.721-2.338-6.52-5.676l-2.029 2.209 6.313 5.901c-.438.506-.384.403-.74.767a121.373 121.373 0 0 1-2.22 2.218c-.383.374.001 0-.795.707-3.594-3.806-2.43-2.582-5.838-6.31l-2.214 2.025 5.672 6.548c-.5.424-1.114 1.027-1.511 1.378-.398.35-.797.698-1.197 1.043-.401.344-.82.764-1.178 1.07-3.04-3.965-2.27-3.043-5.34-7.054l-2.383 1.824 5.318 7.15c-.479.36-.891.685-1.305 1.006-.413.321-.828.64-1.245.955-.416.316-.835.628-1.467 1.076-2.922-4.124-2.392-3.26-5.101-7.523zM55.569 974.903l-1.61-2.532-7.903 4.952s-.287-.493-.58-.921c-.291-.428-.58-.858-.867-1.29l-.295-.566-.295-.567 12.433-7.065a112.3 112.3 0 0 0 14.326 17.538 112.314 112.314 0 0 0 17.54 14.327l-7.02 12.483-1.114-.676-1.114-.676c-.407-.276-.813-.555-1.246-.8 2.69-4.221 2.283-3.603 5.002-7.86l-2.528-1.615-4.913 7.698s-.74-.565-1.138-.862a125.187 125.187 0 0 1-2.363-1.815c-.39-.307-.382-.297-.832-.64 2.93-3.79 2.363-3.037 5.442-7.04l-2.378-1.83-5.316 7.033c-.501-.407-1.161-1.012-1.54-1.34-.38-.33-.758-.66-1.135-.995-.376-.334-.735-.652-1.242-1.16 3.189-3.572 2.338-2.721 5.676-6.52l-2.21-2.029-5.9 6.313c-.507-.438-.403-.384-.767-.74a121.373 121.373 0 0 1-2.218-2.22c-.374-.383 0 0-.707-.795 3.806-3.594 2.581-2.43 6.309-5.838l-2.024-2.215-6.548 5.673c-.424-.5-1.027-1.114-1.378-1.511-.35-.398-.698-.797-1.043-1.198-.345-.4-.765-.819-1.07-1.177 3.964-3.04 3.043-2.27 7.053-5.34l-1.823-2.383-7.15 5.318c-.36-.48-.685-.891-1.006-1.305-.322-.413-.64-.828-.955-1.245a52.843 52.843 0 0 1-1.077-1.467c4.125-2.922 3.26-2.393 7.524-5.102z" style="line-height:normal;text-indent:0;text-align:start;text-decoration-line:none;text-decoration-style:solid;text-decoration-color:#000;text-transform:none;block-progression:tb;isolation:auto;mix-blend-mode:normal" color="#000" font-weight="400" font-family="sans-serif" white-space="normal" overflow="visible" fill="#fff" fill-rule="evenodd"/><use height="100%" width="100%" transform="rotate(180 149.892 902.796)" xlink:href="#f"/><use height="100%" width="100%" transform="rotate(-90 149.892 902.796)" xlink:href="#f"/><path d="M90.093 837.082a88.763 88.763 0 0 0-2.748 2.625 88.692 88.692 0 0 0-2.432 2.542l5.904.86-.724-6.027zm120.033.207l-.856 5.888 6.01-.722a88.788 88.788 0 0 0-2.625-2.748 88.666 88.666 0 0 0-2.53-2.418zM90.749 961.562l-6.016.723a88.743 88.743 0 0 0 2.612 2.732 88.643 88.643 0 0 0 2.546 2.438l.858-5.893zm118.455.068l.719 5.998a88.769 88.769 0 0 0 2.732-2.61c.83-.83 1.632-1.68 2.422-2.534l-5.873-.854zm-59.242 24.498l-3.64 4.635c2.366.097 4.736.098 7.103.008l-3.463-4.642zM78.97 877.603l-.456 1.281a70.197 70.197 0 0 0 .247 47.64l.326.893h1.191l.227-.084 48.687-17.855-.467-1.275a16.932 16.932 0 0 1-.06-11.512l.455-1.281-50.15-17.807zm8.072 6.32l38.717 13.178c-.98 3.52-.962 7.211.054 10.72l-38.548 13.113c-4.81-13.987-4.888-22.974-.223-37.01zm133.991 43.192l.455-1.281a70.197 70.197 0 0 0-.246-47.64l-.326-.893h-1.192l-.226.084-48.688 17.855.467 1.275a16.932 16.932 0 0 1 .06 11.512l-.454 1.281 50.15 17.807zm-8.073-6.32l-38.716-13.178c.98-3.52.962-7.211-.055-10.72l38.548-13.113c4.81 13.987 4.889 22.974.223 37.01z" style="line-height:normal;text-indent:0;text-align:start;text-decoration-line:none;text-decoration-style:solid;text-decoration-color:#000;text-transform:none;block-progression:tb;isolation:auto;mix-blend-mode:normal" color="#000" font-weight="400" font-family="sans-serif" white-space="normal" overflow="visible" fill="#fff"/><text style="line-height:125%" x="132.341" y="931.346" font-weight="400" font-size="76.297" font-family="sans-serif" letter-spacing="0" word-spacing="0"><tspan x="132.341" y="931.346" style="-inkscape-font-specification:'sans-serif Bold'" font-weight="700" fill="#fff">f</tspan></text><text style="line-height:125%" x="-331.541" y="941.381" transform="rotate(-29.497)" font-weight="400" font-size="40" font-family="sans-serif" letter-spacing="0" word-spacing="0" fill="#d40000"><tspan x="-331.541" y="941.381">2</tspan></text></g></svg>