<?xml version="1.0" encoding="UTF-8" standalone="no"?>
<svg
   xmlns:dc="http://purl.org/dc/elements/1.1/"
   xmlns:cc="http://creativecommons.org/ns#"
   xmlns:rdf="http://www.w3.org/1999/02/22-rdf-syntax-ns#"
   xmlns:svg="http://www.w3.org/2000/svg"
   xmlns="http://www.w3.org/2000/svg"
   xmlns:sodipodi="http://sodipodi.sourceforge.net/DTD/sodipodi-0.dtd"
   xmlns:inkscape="http://www.inkscape.org/namespaces/inkscape"
   enable-background="new 0 0 139 139"
   height="139px"
   id="Safety"
   version="1.1"
   viewBox="0 0 139 139"
   width="139px"
   xml:space="preserve"
   inkscape:version="0.91 r13725"
   sodipodi:docname="lock.svg"><metadata
     id="metadata9"><rdf:RDF><cc:Work
         rdf:about=""><dc:format>image/svg+xml</dc:format><dc:type
           rdf:resource="http://purl.org/dc/dcmitype/StillImage" /></cc:Work></rdf:RDF></metadata><defs
     id="defs7" /><sodipodi:namedview
     pagecolor="#ffffff"
     bordercolor="#666666"
     borderopacity="1"
     objecttolerance="10"
     gridtolerance="10"
     guidetolerance="10"
     inkscape:pageopacity="0"
     inkscape:pageshadow="2"
     inkscape:window-width="1920"
     inkscape:window-height="1016"
     id="namedview5"
     showgrid="false"
     inkscape:zoom="6.6156138"
     inkscape:cx="17.971807"
     inkscape:cy="69.5"
     inkscape:window-x="0"
     inkscape:window-y="27"
     inkscape:window-maximized="1"
     inkscape:current-layer="Safety" /><path
     d="M109.92,59.988c0.426-2.44,0.661-4.95,0.661-7.516c0-23.326-18.429-42.305-41.081-42.305  c-22.653,0-41.083,18.979-41.083,42.305c0,2.566,0.236,5.074,0.663,7.516c-3.567,2.278-5.939,6.261-5.939,10.81v41.415  c0,7.084,5.743,12.826,12.825,12.826h67.067c7.08,0,12.822-5.742,12.822-12.826h0.004V70.798  C115.859,66.25,113.489,62.266,109.92,59.988z M75.159,96.15v9c0,3.128-2.534,5.662-5.661,5.662c-3.127,0-5.661-2.534-5.661-5.662  v-9.004c-3.631-2.001-6.094-5.862-6.094-10.302c0-6.492,5.263-11.756,11.757-11.756c6.494,0,11.758,5.264,11.758,11.756  C81.258,90.286,78.793,94.15,75.159,96.15z M94.95,57.971H44.049c-0.349-1.775-0.535-3.616-0.535-5.499  c0-15.003,11.657-27.208,25.986-27.208c14.328,0,25.984,12.204,25.984,27.208C95.484,54.355,95.3,56.196,94.95,57.971z"
     id="path3"
     style="stroke:#ffffff;fill:#ffffff" /></svg>