<?xml version="1.0" encoding="UTF-8" standalone="no"?>
<svg
   xmlns:dc="http://purl.org/dc/elements/1.1/"
   xmlns:cc="http://creativecommons.org/ns#"
   xmlns:rdf="http://www.w3.org/1999/02/22-rdf-syntax-ns#"
   xmlns:svg="http://www.w3.org/2000/svg"
   xmlns="http://www.w3.org/2000/svg"
   version="1.1"
   id="svg4344"
   viewBox="0 0 161.35201 172.31101"
   height="172.311"
   width="161.35201">
  <defs
     id="defs4346" />
  <metadata
     id="metadata4349">
    <rdf:RDF>
      <cc:Work
         rdf:about="">
        <dc:format>image/svg+xml</dc:format>
        <dc:type
           rdf:resource="http://purl.org/dc/dcmitype/StillImage" />
        <dc:title></dc:title>
      </cc:Work>
    </rdf:RDF>
  </metadata>
  <g
     transform="translate(0,-880.05116)"
     id="layer1">
    <g
       transform="translate(-293.71255,309.38143)"
       id="g4250">
      <g
         id="g4215"
         transform="matrix(0.88205465,0,0,0.88205465,-56.637404,133.71524)">
        <circle
           r="40.406101"
           cy="563.70093"
           cx="488.66129"
           id="path4210"
           style="opacity:1;fill:#ffffff;fill-opacity:1;stroke:#ffffff;stroke-width:5;stroke-linecap:round;stroke-miterlimit:4;stroke-dasharray:none;stroke-dashoffset:0;stroke-opacity:1" />
        <path
           id="path4212"
           d="m 423.63271,662.82214 c 0,-39.40111 29.11429,-71.34202 65.02858,-71.34202 35.91429,0 65.02857,31.94091 65.02857,71.34202 z"
           style="opacity:1;fill:#ffffff;fill-opacity:1;stroke:#ffffff;stroke-width:5;stroke-linecap:round;stroke-miterlimit:4;stroke-dasharray:none;stroke-dashoffset:0;stroke-opacity:1" />
      </g>
      <path
         style="color:#000000;font-style:normal;font-variant:normal;font-weight:normal;font-stretch:normal;font-size:medium;line-height:normal;font-family:sans-serif;text-indent:0;text-align:start;text-decoration:none;text-decoration-line:none;text-decoration-style:solid;text-decoration-color:#000000;letter-spacing:normal;word-spacing:normal;text-transform:none;direction:ltr;block-progression:tb;writing-mode:lr-tb;baseline-shift:baseline;text-anchor:start;white-space:normal;clip-rule:nonzero;display:inline;overflow:visible;visibility:visible;opacity:1;isolation:auto;mix-blend-mode:normal;color-interpolation:sRGB;color-interpolation-filters:linearRGB;solid-color:#000000;solid-opacity:1;fill:#ffffff;fill-opacity:1;fill-rule:nonzero;stroke:none;stroke-width:5.05545044;stroke-linecap:butt;stroke-linejoin:miter;stroke-miterlimit:4;stroke-dasharray:none;stroke-dashoffset:0;stroke-opacity:1;color-rendering:auto;image-rendering:auto;shape-rendering:auto;text-rendering:auto;enable-background:accumulate"
         d="m 293.71289,262.40234 -2.3e-4,26.15414 5.05469,0 2.3e-4,-21.09945 15.62142,-2e-4 0,-5.05469 z m 140.67611,0 0,5.05469 15.61881,0 -1.3e-4,21.09945 5.05664,0 1.3e-4,-26.15414 z m -140.67611,146.15414 0,26.15641 20.67611,0 0,-5.05664 -15.62142,0 0,-21.09977 z m 156.29492,0 0,21.09977 -15.61881,0 0,5.05664 20.67545,0 0,-26.15641 z"
         transform="translate(0,308.26772)"
         id="rect4221" />
    </g>
  </g>
</svg>
