<?xml version="1.0" encoding="UTF-8" standalone="no"?>
<svg
   xmlns:dc="http://purl.org/dc/elements/1.1/"
   xmlns:cc="http://creativecommons.org/ns#"
   xmlns:rdf="http://www.w3.org/1999/02/22-rdf-syntax-ns#"
   xmlns:svg="http://www.w3.org/2000/svg"
   xmlns="http://www.w3.org/2000/svg"
   xmlns:sodipodi="http://sodipodi.sourceforge.net/DTD/sodipodi-0.dtd"
   xmlns:inkscape="http://www.inkscape.org/namespaces/inkscape"
   enable-background="new 0 0 48 48"
   height="48px"
   id="Layer_1"
   version="1.1"
   viewBox="0 0 48 48"
   width="48px"
   xml:space="preserve"
   inkscape:version="0.91 r13725"
   sodipodi:docname="registration.svg"><metadata
     id="metadata13"><rdf:RDF><cc:Work
         rdf:about=""><dc:format>image/svg+xml</dc:format><dc:type
           rdf:resource="http://purl.org/dc/dcmitype/StillImage" /></cc:Work></rdf:RDF></metadata><defs
     id="defs11" /><sodipodi:namedview
     pagecolor="#ffffff"
     bordercolor="#666666"
     borderopacity="1"
     objecttolerance="10"
     gridtolerance="10"
     guidetolerance="10"
     inkscape:pageopacity="0"
     inkscape:pageshadow="2"
     inkscape:window-width="786"
     inkscape:window-height="480"
     id="namedview9"
     showgrid="false"
     inkscape:zoom="5.8385417"
     inkscape:cx="6.1016949"
     inkscape:cy="24"
     inkscape:window-x="0"
     inkscape:window-y="27"
     inkscape:window-maximized="0"
     inkscape:current-layer="Layer_1" /><g
     id="g3"
     style="fill:#ffffff"><path
       d="M24,0C10.745,0,0,10.746,0,24c0,13.255,10.745,24,24,24s24-10.744,24-24C48,10.746,37.255,0,24,0z    M24.029,43.844c-11.023,0-19.959-8.936-19.959-19.958S13.006,3.926,24.029,3.926c11.022,0,19.959,8.936,19.959,19.959   S35.052,43.844,24.029,43.844z"
       fill="#231F20"
       id="path5"
       style="fill:#ffffff" /><path
       d="M32.56,21.902h-6.458l0.008-6.576c-0.026-0.454-0.221-1.354-1.331-1.356L23.2,13.968   c-1.181-0.001-1.282,1.165-1.288,1.47l-0.008,6.463h-6.607c-1.22,0-1.323,0.941-1.328,1.21v1.809   c0.006,0.247,0.107,1.178,1.328,1.178h6.602l-0.008,6.602c-0.002,1.219,0.939,1.324,1.209,1.33l1.809,0.002   c0.247-0.006,1.178-0.107,1.18-1.326l0.008-6.607h6.581c0.454-0.027,1.354-0.223,1.354-1.333v-1.578   C34.031,22.007,32.865,21.908,32.56,21.902z"
       fill="#231F20"
       id="path7"
       style="fill:#ffffff" /></g></svg>