<svg xmlns="http://www.w3.org/2000/svg" viewBox="0 0 269.26599 264.797" height="264.797" width="269.266"><g stroke-width="1.926" stroke="#fff"><path d="M529.342 574.27v47.771h-6.9v42.108l6.9 14.035v56.143l-6.9 14.036v42.108h7.188v47.66h-36.358v-19.589h-29.169l-14.584 19.7H362.01l-14.584-19.7h-29.169v19.7h-36.07m-.102.784v-47.772h6.901v-42.107l-6.9-14.036v-56.143l6.9-14.036v-42.107H281.8v-47.66h36.358v19.589h29.168v17.91h116.677v-17.91h29.169v-19.701h36.07" fill="none" transform="matrix(1.07811 0 0 .99994 -302.773 -574.205)"/><path d="M353.175 581.858h104.688v25.5H353.175z" fill="#fff" fill-opacity=".262" transform="matrix(1.07811 0 0 .99994 -302.773 -574.205)"/></g><path d="M11.113 121.865l-5.987 10.37 6.127 10.611zM258.153 121.865l5.987 10.37-6.127 10.611z" fill="#fff" fill-rule="evenodd" stroke="#fff" stroke-width="2"/></svg>