<?xml version="1.0" encoding="UTF-8" standalone="no"?>
<svg
   xmlns:dc="http://purl.org/dc/elements/1.1/"
   xmlns:cc="http://creativecommons.org/ns#"
   xmlns:rdf="http://www.w3.org/1999/02/22-rdf-syntax-ns#"
   xmlns:svg="http://www.w3.org/2000/svg"
   xmlns="http://www.w3.org/2000/svg"
   xmlns:sodipodi="http://sodipodi.sourceforge.net/DTD/sodipodi-0.dtd"
   xmlns:inkscape="http://www.inkscape.org/namespaces/inkscape"
   height="24px"
   id="Layer_1"
   version="1.2"
   viewBox="0 0 24 24"
   width="24px"
   xml:space="preserve"
   inkscape:version="0.91 r13725"
   sodipodi:docname="user.svg"><metadata
     id="metadata17"><rdf:RDF><cc:Work
         rdf:about=""><dc:format>image/svg+xml</dc:format><dc:type
           rdf:resource="http://purl.org/dc/dcmitype/StillImage" /></cc:Work></rdf:RDF></metadata><defs
     id="defs15" /><sodipodi:namedview
     pagecolor="#ffffff"
     bordercolor="#666666"
     borderopacity="1"
     objecttolerance="10"
     gridtolerance="10"
     guidetolerance="10"
     inkscape:pageopacity="0"
     inkscape:pageshadow="2"
     inkscape:window-width="1920"
     inkscape:window-height="1016"
     id="namedview13"
     showgrid="false"
     inkscape:zoom="38.018411"
     inkscape:cx="3.1890914"
     inkscape:cy="12"
     inkscape:window-x="0"
     inkscape:window-y="27"
     inkscape:window-maximized="1"
     inkscape:current-layer="Layer_1" /><g
     id="g3"
     style="stroke:#ffffff;fill:#ffffff"><path
       d="M12,6c1.654,0,3,1.346,3,3s-1.346,3-3,3s-3-1.346-3-3S10.346,6,12,6 M12,4C9.236,4,7,6.238,7,9s2.236,5,5,5s5-2.238,5-5   S14.764,4,12,4z"
       id="path5"
       style="stroke:#ffffff;fill:#ffffff" /></g><g
     id="g7"
     style="stroke:#ffffff;fill:#ffffff"><g
       id="g9"
       style="stroke:#ffffff;fill:#ffffff"><path
         d="M12,17c2.021,0,3.301,0.771,3.783,1.445C15.1,18.705,13.814,19,12,19c-1.984,0-3.206-0.305-3.818-0.542    C8.641,17.743,9.959,17,12,17 M12,15c-3.75,0-6,2-6,4c0,1,2.25,2,6,2c3.518,0,6-1,6-2C18,17,15.646,15,12,15z"
         id="path11"
         style="stroke:#ffffff;fill:#ffffff" /></g></g></svg>